<svg width="10" height="9" viewBox="0 0 10 9" fill="none" xmlns="http://www.w3.org/2000/svg">
<path d="M9.136 5.52C9.264 5.52 9.376 5.568 9.456 5.648C9.552 5.728 9.6 5.824 9.6 5.952V7.264C9.6 7.392 9.552 7.488 9.456 7.568C9.376 7.648 9.264 7.696 9.136 7.696H8.72V8.144C8.72 8.368 8.624 8.576 8.464 8.736C8.288 8.912 8.08 8.992 7.84 8.992H1.744C1.504 8.992 1.296 8.912 1.12 8.736C0.96 8.576 0.864 8.368 0.864 8.144V7.696H0.448C0.32 7.696 0.208 7.648 0.128 7.568C0.032 7.488 0 7.392 0 7.264V5.952C0 5.824 0.032 5.728 0.128 5.648C0.208 5.568 0.32 5.52 0.448 5.52H0.864C0.864 4.976 1.008 4.448 1.28 3.984C1.552 3.52 1.92 3.136 2.4 2.864C2.864 2.592 3.376 2.464 3.92 2.464H4.368V1.904C4.224 1.84 4.112 1.744 4.032 1.6C3.952 1.472 3.92 1.312 3.92 1.152C3.92 0.927999 4 0.719999 4.176 0.559999C4.336 0.384 4.544 0.304 4.8 0.304C5.04 0.304 5.248 0.384 5.408 0.559999C5.584 0.719999 5.664 0.927999 5.664 1.152C5.664 1.312 5.632 1.456 5.552 1.6C5.472 1.728 5.36 1.84 5.216 1.904V2.464H5.664C6.208 2.464 6.72 2.592 7.2 2.864C7.664 3.136 8.032 3.52 8.304 3.984C8.576 4.448 8.72 4.976 8.72 5.52H9.136ZM8.72 6.832V6.384H7.84V5.52C7.84 5.136 7.744 4.768 7.552 4.432C7.36 4.096 7.088 3.84 6.768 3.632C6.432 3.44 6.064 3.344 5.664 3.344H3.92C3.52 3.344 3.152 3.44 2.816 3.632C2.496 3.84 2.224 4.096 2.032 4.432C1.84 4.768 1.744 5.136 1.744 5.52V6.384H0.864V6.832H1.744V8.144H7.84V6.832H8.72ZM4.224 5.52C4.128 5.424 4.032 5.376 3.904 5.376C3.776 5.376 3.68 5.424 3.584 5.52L3.264 5.824L2.944 5.52C2.864 5.424 2.752 5.376 2.624 5.376C2.496 5.376 2.4 5.424 2.304 5.52C2.224 5.6 2.176 5.712 2.176 5.84C2.176 5.952 2.224 6.064 2.304 6.16L3.264 7.12L4.224 6.16C4.32 6.064 4.368 5.952 4.368 5.84C4.368 5.712 4.32 5.616 4.224 5.52ZM7.28 5.52C7.184 5.424 7.072 5.376 6.96 5.376C6.832 5.376 6.736 5.424 6.64 5.52L6.32 5.824L6 5.52C5.92 5.424 5.808 5.376 5.68 5.376C5.552 5.376 5.44 5.424 5.344 5.52C5.264 5.6 5.216 5.712 5.216 5.84C5.216 5.952 5.264 6.064 5.36 6.16L6.32 7.12L7.28 6.16C7.36 6.064 7.408 5.952 7.408 5.84C7.408 5.712 7.36 5.616 7.28 5.52Z" fill="white"/>
</svg>
