<svg width="10" height="13" viewBox="0 0 10 13" fill="none" xmlns="http://www.w3.org/2000/svg">
<path d="M9.6 11.36V12.624L8.496 11.92L5.632 6.528C6.032 6.416 6.384 6.224 6.704 5.936L9.6 11.36ZM6.592 3.648C6.592 4.16 6.416 4.576 6.064 4.928C5.728 5.264 5.296 5.44 4.8 5.44H4.528L1.088 11.92L0 12.624V11.36L3.472 4.848C3.136 4.48 2.976 4.048 3.008 3.536C3.04 3.04 3.232 2.64 3.584 2.32C3.936 2 4.336 1.84 4.8 1.84V0.672C4.96 0.672 5.104 0.719999 5.216 0.832C5.328 0.943999 5.376 1.088 5.376 1.264V1.968C5.76 2.096 6.048 2.32 6.272 2.624C6.48 2.928 6.592 3.264 6.592 3.648ZM5.376 3.648C5.376 3.472 5.328 3.328 5.216 3.216C5.104 3.104 4.96 3.056 4.8 3.056C4.624 3.056 4.48 3.104 4.368 3.216C4.256 3.328 4.208 3.472 4.208 3.648C4.208 3.824 4.256 3.968 4.368 4.08C4.48 4.208 4.624 4.256 4.8 4.256C4.96 4.256 5.104 4.208 5.216 4.08C5.328 3.968 5.376 3.824 5.376 3.648Z" fill="white"/>
</svg>
