<svg width="14" height="6" viewBox="0 0 14 6" fill="none" xmlns="http://www.w3.org/2000/svg">
<path d="M10.0533 5.85388C9.90278 5.85388 9.74865 5.84305 9.59707 5.8205C8.32638 5.63921 7.47671 4.72696 7.00078 4.02569C6.52334 4.72695 5.67373 5.64011 4.4036 5.82115C4.25247 5.84278 4.09999 5.85363 3.94731 5.85361C3.1573 5.85361 2.41566 5.5597 1.85781 5.02604C1.29464 4.48797 0.983873 3.76593 0.983873 2.996C0.983873 2.22511 1.29463 1.50406 1.85862 0.965007C2.41594 0.43127 3.15813 0.138217 3.94848 0.138217C4.0991 0.138217 4.25242 0.149034 4.40349 0.170654C5.67365 0.351722 6.52322 1.26409 7.00069 1.96548C7.47672 1.26409 8.32632 0.35199 9.59691 0.170654C9.74849 0.14894 9.9018 0.138217 10.0524 0.138217C10.8424 0.138217 11.5846 0.432028 12.1419 0.965007C12.7056 1.50406 13.0156 2.22511 13.0156 2.996C13.0156 3.76593 12.7064 4.48797 12.1427 5.02604C11.5844 5.55968 10.8433 5.85388 10.0533 5.85388ZM7.56341 2.99629C7.81157 3.46873 8.54364 4.64759 9.74026 4.81891C9.84501 4.83332 9.95047 4.84133 10.0532 4.84133C11.1281 4.84133 12.0031 4.01377 12.0031 2.99601C12.0031 1.97826 11.1283 1.15071 10.0524 1.15071C9.94968 1.15071 9.84427 1.15804 9.74049 1.1731C8.54365 1.34402 7.81158 2.52287 7.56341 2.99629ZM3.94846 1.15098C2.87214 1.15098 1.99703 1.97849 1.99703 2.99628C1.99703 4.01386 2.87178 4.84159 3.94712 4.84159C4.05034 4.84159 4.1558 4.83357 4.26054 4.81919C5.4572 4.64789 6.18905 3.46969 6.43735 2.99657C6.18972 2.52412 5.45719 1.34429 4.26054 1.17394C4.15703 1.15831 4.05129 1.15098 3.94846 1.15098Z" fill="white"/>
<path d="M3.13199 2.71688H4.91161V3.2901H3.13199V2.71688ZM10.8523 2.71688H10.2498V2.11374H9.67441V2.71688H9.07219V3.2901H9.67441V3.89312H10.2498V3.2901H10.8523V2.71688Z" fill="white"/>
</svg>
