<svg width="11" height="7" viewBox="0 0 11 7" fill="none" xmlns="http://www.w3.org/2000/svg">
<path d="M3.704 2.856C3.704 2.984 3.704 3.096 3.72 3.16L3.832 3.368C3.848 3.4 3.864 3.432 3.864 3.464C3.864 3.48 3.832 3.512 3.784 3.544L3.592 3.688C3.56 3.704 3.544 3.704 3.512 3.704C3.496 3.704 3.464 3.688 3.416 3.64C3.368 3.608 3.32 3.56 3.288 3.496L3.208 3.32C2.952 3.624 2.632 3.768 2.264 3.768C1.992 3.768 1.784 3.704 1.624 3.544C1.464 3.384 1.384 3.176 1.384 2.92C1.384 2.664 1.48 2.44 1.688 2.264C1.896 2.104 2.152 2.008 2.472 2.008C2.552 2.008 2.664 2.024 2.792 2.04C2.92 2.056 3.048 2.072 3.16 2.104V1.88C3.16 1.64 3.112 1.48 3.016 1.384C2.92 1.272 2.744 1.224 2.52 1.224C2.392 1.224 2.264 1.24 2.136 1.272C2.008 1.304 1.896 1.336 1.816 1.368L1.656 1.416C1.608 1.416 1.592 1.384 1.592 1.32V1.16C1.592 1.112 1.592 1.08 1.608 1.048C1.624 1.032 1.656 1.016 1.704 1C1.816 0.92 1.944 0.872 2.104 0.823999C2.248 0.792 2.424 0.776 2.6 0.776C2.984 0.776 3.256 0.872 3.432 1.032C3.608 1.208 3.704 1.48 3.704 1.832V2.856ZM2.392 3.352C2.504 3.352 2.616 3.336 2.728 3.288C2.84 3.256 2.936 3.176 3.032 3.064C3.096 3.016 3.128 2.952 3.16 2.872L3.176 2.456C3.128 2.44 3.08 2.44 3 2.44L2.888 2.424L2.584 2.408C2.376 2.408 2.216 2.44 2.104 2.52C2.008 2.6 1.944 2.728 1.944 2.888C1.944 3.032 1.992 3.16 2.056 3.24C2.136 3.304 2.248 3.352 2.392 3.352ZM4.968 3.688C4.92 3.688 4.888 3.672 4.856 3.64C4.824 3.608 4.792 3.576 4.776 3.544L4.024 1.048L3.992 0.936C3.992 0.872 4.024 0.839999 4.088 0.839999H4.376C4.456 0.839999 4.504 0.856 4.536 0.888C4.552 0.903999 4.568 0.952 4.584 1.016L5.112 3.112L5.608 1.016C5.624 0.936 5.656 0.888 5.688 0.872C5.72 0.856 5.752 0.839999 5.8 0.839999H6.056C6.12 0.839999 6.168 0.856 6.184 0.888C6.216 0.903999 6.232 0.952 6.248 1.016L6.76 3.16L7.304 1.016C7.32 0.952 7.352 0.92 7.368 0.888C7.4 0.856 7.448 0.839999 7.48 0.839999H7.8C7.848 0.839999 7.864 0.872 7.864 0.936L7.08 3.544C7.048 3.608 7.016 3.64 7 3.672C6.984 3.688 6.936 3.704 6.872 3.704H6.6C6.552 3.704 6.52 3.688 6.488 3.656C6.44 3.624 6.424 3.592 6.424 3.544C6.424 3.544 6.264 2.872 5.928 1.48L5.432 3.528C5.416 3.576 5.4 3.624 5.368 3.64C5.336 3.672 5.288 3.688 5.224 3.688H4.968ZM9.08 3.768C8.904 3.768 8.744 3.752 8.584 3.72C8.424 3.672 8.312 3.64 8.232 3.592C8.168 3.56 8.136 3.528 8.12 3.496C8.104 3.464 8.088 3.432 8.088 3.4V3.256C8.088 3.192 8.12 3.16 8.152 3.16H8.232L8.328 3.192C8.424 3.256 8.552 3.288 8.664 3.32C8.792 3.336 8.92 3.352 9.032 3.352C9.24 3.352 9.4 3.304 9.512 3.24C9.608 3.16 9.672 3.064 9.672 2.936C9.672 2.84 9.64 2.76 9.576 2.712C9.512 2.648 9.416 2.6 9.272 2.552L8.792 2.408C8.552 2.328 8.392 2.216 8.28 2.072C8.184 1.928 8.136 1.784 8.136 1.608C8.136 1.464 8.168 1.352 8.216 1.256C8.264 1.16 8.344 1.08 8.456 1C8.552 0.936 8.664 0.872 8.792 0.839999C8.904 0.792 9.032 0.776 9.176 0.776C9.16 0.776 9.24 0.776 9.4 0.776L9.592 0.823999L9.784 0.872L9.912 0.936C9.96 0.967999 9.992 1 10.008 1.016C10.04 1.032 10.056 1.064 10.056 1.112V1.272C10.056 1.336 10.024 1.368 9.992 1.368C9.96 1.368 9.912 1.352 9.848 1.336C9.672 1.256 9.48 1.208 9.24 1.208C9.064 1.208 8.92 1.24 8.808 1.304C8.712 1.352 8.648 1.448 8.648 1.592C8.648 1.672 8.68 1.752 8.744 1.816C8.808 1.88 8.92 1.928 9.096 1.992L9.56 2.12C9.784 2.184 9.944 2.28 10.056 2.424C10.152 2.552 10.216 2.712 10.216 2.904C10.216 3.016 10.184 3.144 10.12 3.256C10.056 3.368 9.976 3.464 9.896 3.528C9.8 3.608 9.688 3.656 9.544 3.704C9.4 3.752 9.24 3.768 9.08 3.768ZM9.672 5.32C9.16 5.688 8.552 5.992 7.832 6.232C7.144 6.424 6.472 6.52 5.8 6.52C4.888 6.52 4.024 6.36 3.208 6.04C2.392 5.736 1.672 5.288 1.048 4.712C0.984 4.68 0.968 4.632 1.016 4.584C1.048 4.536 1.096 4.52 1.144 4.552C1.848 4.968 2.6 5.272 3.416 5.496C4.216 5.704 5.048 5.816 5.896 5.816C7.16 5.816 8.376 5.576 9.528 5.08C9.624 5.048 9.688 5.064 9.736 5.128C9.784 5.192 9.768 5.256 9.672 5.32ZM10.12 4.84C10.024 4.728 9.624 4.712 8.92 4.792H8.888C8.84 4.808 8.808 4.792 8.808 4.76C8.792 4.712 8.808 4.68 8.856 4.648C9.032 4.52 9.256 4.424 9.528 4.376C9.752 4.344 9.976 4.344 10.184 4.376C10.392 4.408 10.52 4.44 10.552 4.488C10.6 4.536 10.6 4.664 10.584 4.872C10.552 5.08 10.488 5.288 10.376 5.496C10.28 5.736 10.136 5.944 9.96 6.088C9.912 6.12 9.88 6.136 9.848 6.12C9.816 6.12 9.816 6.088 9.832 6.04L9.848 6.024C10.12 5.352 10.216 4.952 10.12 4.84Z" fill="white"/>
</svg>
