<svg width="10" height="12" viewBox="0 0 10 12" fill="none" xmlns="http://www.w3.org/2000/svg">
<path d="M8.928 2.408C9.136 2.536 9.296 2.712 9.424 2.92C9.536 3.128 9.6 3.336 9.6 3.576V7.72C9.6 7.96 9.536 8.168 9.424 8.376C9.296 8.584 9.136 8.76 8.928 8.888L5.456 10.952C5.248 11.08 5.024 11.144 4.8 11.144C4.56 11.144 4.336 11.08 4.128 10.952L0.656 8.888C0.448 8.76 0.288 8.584 0.16 8.376C0.048 8.168 0 7.96 0 7.72V3.576C0 3.336 0.048 3.128 0.16 2.92C0.288 2.712 0.448 2.536 0.656 2.408L4.128 0.344C4.336 0.216 4.56 0.151999 4.8 0.151999C5.024 0.151999 5.248 0.216 5.456 0.344L8.928 2.408ZM6.24 8.808C6.528 8.6 6.672 8.328 6.672 7.992C6.672 7.656 6.512 7.48 6.192 7.48C6.096 7.48 6.016 7.48 5.968 7.448C5.904 7.416 5.888 7.384 5.888 7.32C5.888 7.144 5.952 7.016 6.08 6.952C6.208 6.904 6.336 6.872 6.464 6.904C6.496 6.872 6.512 6.84 6.512 6.824L6.576 6.584C6.608 6.536 6.608 6.504 6.544 6.504C6.432 6.472 6.336 6.488 6.24 6.552V6.232C6.24 6.216 6.224 6.2 6.192 6.2L6 6.312C5.968 6.344 5.968 6.36 5.968 6.392V6.696C5.712 6.92 5.584 7.192 5.584 7.528C5.584 7.704 5.616 7.816 5.696 7.88C5.776 7.928 5.888 7.96 6.064 7.96C6.224 7.96 6.32 8.04 6.32 8.2C6.32 8.376 6.224 8.504 6.048 8.568C5.936 8.616 5.824 8.632 5.696 8.616H5.648C5.616 8.648 5.616 8.664 5.616 8.696L5.536 8.968C5.536 9 5.552 9 5.584 9C5.696 9.048 5.824 9.032 5.968 8.968V9.272C5.968 9.32 5.968 9.336 6 9.32L6.192 9.192C6.224 9.176 6.24 9.144 6.24 9.128V8.808ZM8.064 8.344L8.032 8.104L7.168 8.616C7.152 8.648 7.136 8.664 7.136 8.696V8.92H7.168L8.032 8.376C8.064 8.376 8.064 8.36 8.064 8.344ZM8.656 3.272C8.816 3.192 8.944 3.16 9.072 3.192C9.184 3.224 9.264 3.288 9.328 3.384C9.264 3.048 9.104 2.776 8.8 2.6L5.344 0.535999C5.184 0.455999 5.008 0.407999 4.816 0.407999C4.608 0.407999 4.416 0.455999 4.24 0.535999L0.784 2.6C0.624 2.712 0.496 2.84 0.384 3.032C0.272 3.208 0.224 3.4 0.224 3.576V7.72C0.224 7.896 0.272 8.088 0.384 8.264C0.496 8.44 0.624 8.584 0.784 8.696L4.24 10.76C4.432 10.84 4.608 10.888 4.8 10.888H4.992C4.784 10.808 4.672 10.616 4.672 10.328V6.312C4.672 6.088 4.736 5.88 4.848 5.736C4.96 5.576 5.136 5.432 5.376 5.304L8.656 3.272Z" fill="white"/>
</svg>
