<svg width="11" height="12" viewBox="0 0 11 12" fill="none" xmlns="http://www.w3.org/2000/svg">
<path d="M5.832 0.264C5.928 0.264 6.008 0.28 6.088 0.311999C7.144 0.888 8.184 1.528 9.256 2.12C9.736 2.456 10.472 2.616 10.584 3.272C10.6 4.616 10.584 5.928 10.584 7.272C10.568 7.736 10.664 8.28 10.248 8.6C9.192 9.224 8.088 9.816 7.032 10.456C6.552 10.696 6.104 11.176 5.528 11C4.344 10.344 3.176 9.672 2.024 9.016C1.608 8.776 1.08 8.552 1.016 8.024C0.984 6.68 1 5.32 1 3.976C1 3.528 0.92 3.016 1.32 2.712C2.392 2.072 3.48 1.464 4.568 0.839999C4.984 0.648 5.352 0.247999 5.832 0.264ZM5.976 2.456C4.92 2.408 3.848 2.888 3.224 3.736C2.296 4.936 2.424 6.76 3.464 7.848C4.536 9.032 6.504 9.176 7.736 8.184C7.992 7.912 8.872 7.32 8.28 7.08C7.832 6.984 7.256 6.136 6.952 6.728C6.328 7.448 5.064 7.384 4.52 6.6C3.944 5.88 4.184 4.728 4.984 4.296C5.688 3.832 6.68 4.088 7.144 4.776C7.56 4.76 8.088 4.264 8.552 4.04C8.04 3.144 7.032 2.52 5.976 2.456Z" fill="white"/>
</svg>
