<svg width="11" height="11" viewBox="0 0 11 11" fill="none" xmlns="http://www.w3.org/2000/svg">
<path d="M9.96 2.488C10.392 3 10.6 3.592 10.584 4.264C10.584 5.384 10.312 6.264 9.736 6.856C9.288 7.288 8.648 7.56 7.848 7.688C8.008 7.928 8.072 8.264 8.072 8.696V10.424C8.072 10.52 8.04 10.6 7.976 10.664C7.912 10.728 7.848 10.76 7.752 10.76C7.672 10.76 7.592 10.728 7.528 10.664C7.464 10.616 7.432 10.536 7.432 10.424V8.696C7.448 8.488 7.432 8.312 7.384 8.152C7.32 7.992 7.224 7.832 7.096 7.688L7.288 7.144C7.832 7.08 8.28 6.968 8.6 6.808C9.032 6.632 9.352 6.36 9.576 5.992C9.848 5.544 9.992 4.952 9.992 4.216C9.992 3.672 9.8 3.176 9.4 2.744L9.32 2.376C9.496 1.976 9.496 1.56 9.352 1.112C8.92 1.208 8.472 1.416 7.992 1.736L7.736 1.816C6.712 1.544 5.688 1.544 4.664 1.816L4.392 1.736C3.736 1.336 3.272 1.144 3 1.144C2.856 1.608 2.856 2.056 3.032 2.456L2.92 2.792C2.712 3 2.568 3.224 2.456 3.496C2.344 3.752 2.296 4.008 2.296 4.264C2.296 5 2.424 5.576 2.696 5.992C2.904 6.36 3.224 6.648 3.672 6.856C3.992 7.016 4.44 7.128 5 7.192L5.176 7.768C4.904 8.008 4.776 8.328 4.808 8.696V10.472C4.824 10.568 4.808 10.648 4.728 10.728C4.648 10.808 4.568 10.84 4.488 10.84C4.392 10.84 4.312 10.808 4.248 10.728C4.168 10.648 4.12 10.568 4.12 10.472V9.48C3.704 9.592 3.32 9.592 3 9.48C2.728 9.416 2.472 9.272 2.248 9.064C2.12 8.968 1.96 8.776 1.752 8.504L1.72 8.472C1.592 8.328 1.496 8.2 1.4 8.136C1.32 8.056 1.24 8.008 1.16 7.992C1.112 7.96 1.064 7.912 1.032 7.832C0.984 7.752 0.984 7.672 1.016 7.608C1.032 7.528 1.08 7.464 1.16 7.416C1.24 7.368 1.304 7.368 1.384 7.416C1.56 7.448 1.736 7.512 1.912 7.64C1.976 7.72 2.104 7.864 2.296 8.056L2.328 8.136C2.568 8.456 2.792 8.664 3 8.776C3.32 8.952 3.752 8.968 4.28 8.84V8.696C4.216 8.344 4.28 8.008 4.472 7.688C3.656 7.528 3.048 7.24 2.632 6.808C2.008 6.216 1.688 5.368 1.672 4.296C1.672 3.592 1.896 3 2.328 2.488C2.2 1.832 2.248 1.24 2.472 0.728L2.696 0.568C2.792 0.52 2.968 0.504 3.224 0.535999C3.624 0.615999 4.088 0.808 4.616 1.144C5.64 0.888 6.68 0.888 7.736 1.144C8.248 0.808 8.696 0.599999 9.096 0.488C9.368 0.44 9.56 0.44 9.656 0.488L9.88 0.679999C10.104 1.304 10.136 1.912 9.96 2.488Z" fill="white"/>
</svg>
