<svg width="10" height="11" viewBox="0 0 10 11" fill="none" xmlns="http://www.w3.org/2000/svg">
<path d="M9.408 5.224C9.536 5.352 9.6 5.496 9.6 5.656C9.6 5.816 9.536 5.96 9.408 6.088L5.248 10.248C5.12 10.376 4.976 10.44 4.8 10.44C4.64 10.44 4.496 10.376 4.368 10.248L0.176 6.072C0.048 5.96 0 5.816 0 5.64C0 5.48 0.048 5.32 0.176 5.208L3.056 2.328L4.144 3.416C4.08 3.544 4.064 3.688 4.08 3.848C4.112 3.992 4.192 4.12 4.304 4.232C4.336 4.264 4.368 4.296 4.416 4.328C4.448 4.36 4.496 4.376 4.528 4.392V7.016C4.496 7.032 4.464 7.064 4.416 7.08C4.384 7.112 4.336 7.144 4.304 7.176C4.144 7.32 4.064 7.48 4.064 7.688C4.064 7.896 4.144 8.072 4.304 8.216C4.432 8.36 4.608 8.44 4.816 8.44C5.024 8.44 5.184 8.376 5.328 8.216C5.488 8.072 5.552 7.896 5.552 7.704C5.552 7.496 5.488 7.32 5.328 7.176C5.296 7.16 5.264 7.128 5.232 7.112C5.2 7.08 5.168 7.064 5.136 7.048V4.424L6.144 5.432C6.08 5.56 6.064 5.688 6.096 5.832C6.112 5.976 6.176 6.104 6.288 6.216C6.432 6.36 6.608 6.44 6.816 6.44C7.008 6.44 7.184 6.36 7.328 6.216C7.472 6.072 7.536 5.912 7.552 5.704C7.552 5.496 7.472 5.32 7.328 5.176C7.232 5.08 7.104 5 6.96 4.984C6.832 4.952 6.704 4.968 6.576 5L5.52 3.944C5.552 3.816 5.568 3.688 5.536 3.544C5.504 3.416 5.44 3.304 5.328 3.192C5.232 3.096 5.104 3.016 4.976 2.984C4.832 2.952 4.704 2.968 4.576 3L3.472 1.912L4.336 1.032C4.464 0.919999 4.608 0.856 4.784 0.856C4.944 0.839999 5.088 0.903999 5.216 1.032L9.408 5.224Z" fill="white"/>
</svg>
