<svg width="11" height="14" viewBox="0 0 11 14" fill="none" xmlns="http://www.w3.org/2000/svg">
<path d="M5.96 0.16C7.016 0.127999 8.216 0.384 8.872 1.296C9.688 2.4 9.592 3.84 9.64 5.136C9.656 6.384 9.72 7.664 9.752 8.912C9.752 9.84 9.608 10.832 9.048 11.616C8.76 12.048 8.28 12.272 7.848 12.528C6.856 12.928 5.736 12.976 4.664 12.88C4.024 12.832 3.464 12.544 3.016 12.144C2.392 11.984 2.04 11.296 1.896 10.704C1.768 9.424 1.896 8.112 1.912 6.8C1.976 6.288 1.864 5.808 1.8 5.28C1.688 3.92 1.704 2.4 2.536 1.248C3.4 0.287999 4.776 0.176 5.96 0.16ZM7.08 0.672C6.696 0.704 6.312 0.912 6.104 1.232C5.544 1.968 6.2 3.152 7.08 3.12C7.704 3.168 8.392 2.736 8.408 2.064C8.552 1.296 7.816 0.639999 7.08 0.672ZM9.096 0.672C9.432 0.655999 9.832 0.799999 9.976 1.136C10.328 1.488 9.56 2.656 9.384 1.968C9.16 1.728 9.608 1.568 9.432 1.296C9.064 1.36 8.328 0.688 9.096 0.672ZM7.256 0.815999C7.4 0.832 7.528 0.863999 7.656 0.943999C8.36 1.248 8.536 2.32 7.864 2.752C7.256 3.232 6.216 2.912 6.04 2.128C5.864 1.408 6.552 0.752 7.256 0.815999ZM4.072 0.832C3.512 0.799999 2.872 1.232 2.856 1.824C2.76 2.352 3.048 2.928 3.544 3.12C4.232 3.488 5.176 3.04 5.32 2.256C5.48 1.52 4.808 0.799999 4.072 0.832ZM2.008 0.863999C2.488 0.896 2.664 0.959999 2.28 1.344C2.008 1.376 1.512 1.584 1.896 1.904C2.04 2.256 1.56 2.608 1.32 2.16C0.904 1.648 1.368 0.832 2.008 0.863999ZM4.12 0.976C4.216 0.992 4.312 0.992 4.392 1.024C5.16 1.136 5.464 2.208 4.936 2.736C4.392 3.392 3.128 3.12 2.984 2.256C2.808 1.584 3.432 0.896 4.12 0.976ZM6.52 1.584C6.28 1.632 6.024 1.952 6.216 2.176C6.712 2.896 7.464 1.584 6.52 1.584ZM3.384 1.68C2.936 1.792 2.984 2.512 3.464 2.48C4.088 2.512 3.944 1.568 3.384 1.68ZM5.624 2.736C5.544 2.736 5.48 2.736 5.4 2.768C5.144 3.04 4.376 3.52 4.824 3.952C5.32 3.888 5.112 4.224 5.128 4.528C5.16 5.088 5.608 4.592 5.736 4.688C6.232 5.056 6.312 4.4 6.248 4.064C6.376 3.952 6.92 3.888 6.664 3.472C6.296 3.232 6.12 2.704 5.624 2.736ZM6.12 3.2C6.488 3.28 6.872 3.952 6.216 3.904C5.784 3.536 5.176 4.112 4.824 3.728C4.808 2.832 5.736 3.68 6.12 3.2ZM5.624 3.888C5.656 3.904 5.624 3.984 5.64 4.032C5.704 4.304 5.528 4.992 5.224 4.544C5.16 4.24 5.208 3.856 5.624 3.888ZM5.8 3.888C6.12 3.888 6.216 4.224 6.168 4.496C5.928 5.104 5.544 4.208 5.8 3.888ZM9.896 6.496C10.12 6.544 10.344 6.576 10.52 6.768C10.728 7.12 10.44 7.04 10.248 6.96C10.712 7.152 10.152 7.376 9.944 7.104C9.704 7.04 9.752 6.592 9.896 6.496ZM1.688 6.592C2.04 6.784 1.624 7.36 1.32 7.408C0.744 7.44 1.528 6.912 1.128 7.12C0.712 7.056 1.4 6.544 1.688 6.592ZM8.808 12.112C9.128 12.144 9.288 12.432 9.384 12.704C9.432 13.344 8.84 12.176 9.096 12.768C9.432 13.264 8.728 13.104 8.632 12.752C8.088 12.592 8.376 12.112 8.808 12.112ZM2.824 12.144C2.984 12.128 3.624 12.592 3.32 12.672C3.048 12.8 2.232 13.536 2.376 12.848C2.728 12.432 2.28 12.72 2.216 12.976C1.88 12.72 2.472 12.192 2.824 12.144Z" fill="white"/>
</svg>
