<svg width="10" height="11" viewBox="0 0 10 11" fill="none" xmlns="http://www.w3.org/2000/svg">
<path d="M4.8 2.152L4.56 2.088L1.616 7.192C1.744 7.304 1.824 7.448 1.856 7.608H7.728C7.76 7.432 7.84 7.304 7.968 7.192L5.024 2.088L4.8 2.152ZM1.92 8.056L4.192 9.4C4.368 9.24 4.56 9.144 4.8 9.144C5.024 9.144 5.216 9.24 5.392 9.4L7.664 8.056H1.92ZM4.8 10.952C4.544 10.952 4.336 10.856 4.16 10.68C3.984 10.504 3.904 10.296 3.904 10.056L3.952 9.768L1.664 8.408C1.488 8.616 1.28 8.728 1.008 8.728C0.752 8.728 0.528 8.648 0.352 8.472C0.176 8.296 0.096 8.088 0.096 7.832C0.096 7.624 0.16 7.432 0.288 7.272C0.416 7.112 0.576 7.016 0.768 6.968V4.264C0.56 4.232 0.368 4.12 0.224 3.96C0.064 3.8 0 3.592 0 3.352C0 3.112 0.08 2.904 0.256 2.728C0.432 2.552 0.64 2.472 0.88 2.472C1.168 2.472 1.392 2.584 1.584 2.808L3.92 1.464L3.904 1.24C3.904 1 3.984 0.792 4.16 0.615999C4.336 0.44 4.544 0.344 4.8 0.344C5.04 0.344 5.248 0.44 5.424 0.615999C5.6 0.792 5.68 1 5.68 1.24L5.664 1.464L8 2.808C8.176 2.584 8.416 2.472 8.704 2.472C8.944 2.472 9.152 2.552 9.328 2.728C9.504 2.904 9.6 3.112 9.6 3.352C9.6 3.592 9.52 3.8 9.376 3.96C9.216 4.12 9.04 4.232 8.816 4.264V6.968C8.992 7.016 9.152 7.128 9.28 7.272C9.424 7.432 9.488 7.624 9.488 7.832C9.488 8.088 9.408 8.296 9.232 8.472C9.056 8.648 8.832 8.728 8.576 8.728C8.304 8.728 8.096 8.616 7.92 8.408L5.632 9.768L5.68 10.056C5.68 10.296 5.6 10.504 5.424 10.68C5.248 10.856 5.04 10.952 4.8 10.952ZM4.144 1.864L1.76 3.24L1.792 3.352C1.792 3.528 1.728 3.704 1.616 3.848C1.504 4.008 1.376 4.12 1.216 4.184L1.232 6.968L4.144 1.864ZM5.44 1.864L8.352 6.968L8.368 4.184C8.192 4.12 8.064 4.008 7.952 3.864C7.856 3.704 7.792 3.544 7.792 3.352L7.824 3.24L5.44 1.864Z" fill="white"/>
</svg>
