<svg width="10" height="8" viewBox="0 0 10 8" fill="none" xmlns="http://www.w3.org/2000/svg">
<path d="M2.096 0.136H3.68V4.584C3.68 6.584 2.736 7.288 1.152 7.288C0.8 7.288 0.288 7.224 0 7.112L0.16 5.816C0.4 5.944 0.688 5.992 0.976 5.992C1.632 5.992 2.096 5.704 2.096 4.584V0.136ZM5.088 5.528C5.488 5.752 6.192 5.992 6.848 5.992C7.6 5.992 7.952 5.704 7.952 5.224C7.952 4.76 7.6 4.536 6.784 4.232C5.616 3.832 4.848 3.176 4.848 2.12C4.848 0.888 5.84 0.00799942 7.536 0.00799942C8.368 0.00799942 8.96 0.184 9.36 0.36L9.008 1.656C8.72 1.544 8.24 1.304 7.536 1.304C6.832 1.304 6.496 1.592 6.496 2.008C6.496 2.472 6.896 2.648 7.776 3C9.008 3.48 9.6 4.12 9.6 5.112C9.6 6.28 8.656 7.288 6.72 7.288C5.904 7.288 5.136 7.048 4.736 6.872L5.088 5.528Z" fill="white"/>
</svg>
