<svg width="10" height="11" viewBox="0 0 10 11" fill="none" xmlns="http://www.w3.org/2000/svg">
<path d="M4.8 0.839999C5.664 0.839999 6.464 1.032 7.2 1.416C7.92 1.8 8.512 2.328 8.944 2.968C9.376 3.624 9.6 4.328 9.6 5.08C9.6 5.848 9.296 6.664 8.704 7.544C8.16 8.328 7.52 9 6.752 9.576C5.968 10.152 5.328 10.44 4.8 10.44C4.256 10.44 3.616 10.152 2.848 9.576C2.08 9 1.424 8.328 0.896 7.544C0.288 6.648 0 5.832 0 5.08C0 4.328 0.208 3.624 0.64 2.968C1.088 2.328 1.664 1.8 2.4 1.416C3.12 1.032 3.92 0.839999 4.8 0.839999ZM3.904 5.064C3.632 4.632 3.28 4.328 2.864 4.168C2.432 4.008 2.064 4.024 1.728 4.216C1.408 4.424 1.232 4.744 1.184 5.208C1.136 5.672 1.248 6.12 1.536 6.552C1.808 6.984 2.144 7.272 2.576 7.448C3.008 7.608 3.376 7.592 3.712 7.4C4.032 7.192 4.208 6.872 4.24 6.408C4.272 5.96 4.16 5.512 3.904 5.064ZM5.696 5.064C5.424 5.512 5.312 5.96 5.344 6.408C5.376 6.872 5.552 7.192 5.888 7.4C6.208 7.592 6.576 7.608 7.008 7.448C7.44 7.272 7.776 6.984 8.064 6.552C8.336 6.12 8.448 5.672 8.4 5.208C8.352 4.744 8.176 4.424 7.856 4.216C7.52 4.024 7.152 4.008 6.72 4.168C6.304 4.328 5.952 4.632 5.696 5.064ZM4.8 8.712C4.336 8.712 3.984 8.648 3.712 8.52C3.584 8.456 3.488 8.392 3.456 8.328C3.456 8.36 3.488 8.44 3.568 8.584C3.664 8.808 3.808 8.968 3.968 9.096C4.208 9.288 4.48 9.368 4.8 9.368C5.104 9.368 5.376 9.288 5.616 9.096C5.776 8.968 5.92 8.792 6.016 8.584L6.128 8.328L6.016 8.424C5.92 8.504 5.776 8.568 5.616 8.616C5.376 8.68 5.104 8.712 4.8 8.712Z" fill="white"/>
</svg>
