<svg width="10" height="12" viewBox="0 0 10 12" fill="none" xmlns="http://www.w3.org/2000/svg">
<path d="M4.608 2.76C4.608 2.776 4.608 2.792 4.592 2.792H4.576H4.544C4.528 2.792 4.512 2.776 4.512 2.76C4.496 2.744 4.496 2.728 4.48 2.712L4.464 2.696C4.448 2.68 4.432 2.664 4.432 2.632C4.432 2.616 4.448 2.616 4.448 2.616C4.448 2.6 4.464 2.6 4.48 2.6L4.544 2.632C4.56 2.664 4.576 2.68 4.592 2.696C4.608 2.728 4.608 2.744 4.608 2.76ZM3.952 2.392C3.952 2.296 3.936 2.216 3.888 2.168C3.856 2.104 3.808 2.088 3.76 2.088V2.104C3.744 2.12 3.744 2.12 3.728 2.12V2.184H3.84C3.84 2.232 3.84 2.264 3.856 2.296C3.872 2.312 3.872 2.36 3.872 2.392H3.952ZM5.264 2.184C5.296 2.184 5.328 2.216 5.344 2.248C5.36 2.28 5.392 2.328 5.408 2.392H5.488C5.472 2.36 5.456 2.344 5.456 2.328C5.456 2.312 5.456 2.296 5.456 2.28C5.456 2.248 5.44 2.232 5.44 2.216C5.44 2.184 5.424 2.168 5.408 2.152C5.392 2.136 5.376 2.12 5.344 2.104C5.328 2.088 5.312 2.088 5.296 2.088L5.28 2.104C5.264 2.12 5.232 2.12 5.216 2.12C5.216 2.136 5.216 2.152 5.232 2.152C5.248 2.168 5.264 2.184 5.264 2.184ZM4.128 2.792H4.096C4.096 2.792 4.08 2.776 4.08 2.76C4.08 2.744 4.096 2.728 4.096 2.696C4.096 2.68 4.112 2.664 4.128 2.632C4.176 2.632 4.208 2.632 4.224 2.616L4.24 2.6C4.256 2.6 4.272 2.616 4.288 2.616V2.632C4.288 2.664 4.272 2.68 4.256 2.712C4.24 2.728 4.208 2.76 4.176 2.792H4.128ZM3.728 2.76C3.648 2.712 3.6 2.664 3.568 2.616C3.552 2.552 3.536 2.488 3.536 2.392C3.536 2.328 3.536 2.28 3.552 2.232C3.552 2.2 3.568 2.168 3.6 2.12C3.616 2.088 3.648 2.056 3.68 2.04C3.712 2.024 3.76 2.008 3.792 2.008C3.84 2.008 3.872 2.024 3.888 2.04C3.92 2.072 3.952 2.088 4 2.12C4.016 2.184 4.032 2.232 4.048 2.296C4.064 2.344 4.064 2.408 4.064 2.456V2.536H4.08V2.504C4.112 2.504 4.128 2.472 4.128 2.44C4.128 2.408 4.128 2.36 4.128 2.28C4.128 2.216 4.128 2.152 4.128 2.104C4.112 2.056 4.096 1.992 4.064 1.928C4.032 1.88 3.984 1.832 3.936 1.8C3.904 1.768 3.84 1.752 3.76 1.752C3.712 1.752 3.648 1.768 3.6 1.8C3.552 1.832 3.52 1.88 3.504 1.928C3.456 2.008 3.44 2.088 3.424 2.152C3.408 2.2 3.408 2.296 3.408 2.392C3.408 2.456 3.424 2.536 3.456 2.616C3.488 2.68 3.536 2.76 3.6 2.84C3.616 2.808 3.632 2.808 3.664 2.792C3.68 2.792 3.696 2.776 3.728 2.76ZM8.4 8.024C8.416 8.024 8.432 8.024 8.432 8.008L8.448 7.992C8.448 7.944 8.432 7.912 8.4 7.848C8.384 7.8 8.352 7.752 8.288 7.688C8.24 7.64 8.16 7.592 8.08 7.56C7.984 7.512 7.872 7.496 7.76 7.48H7.712H7.696C7.664 7.48 7.648 7.48 7.648 7.48C7.648 7.48 7.632 7.48 7.616 7.48C7.6 7.48 7.568 7.464 7.536 7.464C7.504 7.464 7.488 7.464 7.472 7.464C7.52 7.288 7.552 7.128 7.584 6.968C7.6 6.808 7.616 6.664 7.616 6.52C7.616 6.344 7.584 6.184 7.552 6.04C7.504 5.912 7.456 5.784 7.392 5.672C7.312 5.544 7.232 5.464 7.152 5.4C7.072 5.352 6.992 5.32 6.912 5.288C6.896 5.32 6.88 5.32 6.88 5.336C6.864 5.336 6.864 5.352 6.864 5.368C6.96 5.416 7.056 5.464 7.136 5.544C7.232 5.608 7.296 5.704 7.344 5.816C7.408 5.944 7.456 6.072 7.472 6.2C7.488 6.312 7.488 6.44 7.488 6.552C7.488 6.664 7.488 6.792 7.456 6.952C7.44 7.096 7.392 7.288 7.312 7.48C7.232 7.512 7.168 7.56 7.104 7.624C7.024 7.704 6.96 7.784 6.912 7.912C6.912 7.928 6.912 7.928 6.912 7.944C6.912 7.944 6.928 7.96 6.944 7.96L6.976 7.928C6.992 7.912 7.008 7.896 7.008 7.864C7.056 7.816 7.088 7.784 7.104 7.752C7.12 7.72 7.152 7.688 7.2 7.656C7.264 7.624 7.312 7.608 7.36 7.592C7.392 7.576 7.44 7.56 7.488 7.56C7.6 7.56 7.68 7.576 7.776 7.592C7.856 7.592 7.936 7.608 7.984 7.64C8.064 7.672 8.128 7.688 8.16 7.72C8.192 7.736 8.224 7.768 8.256 7.8C8.272 7.832 8.288 7.864 8.304 7.896C8.32 7.912 8.352 7.944 8.352 7.96C8.352 7.992 8.368 8.008 8.384 8.008L8.4 8.024ZM4.96 2.6C4.944 2.584 4.928 2.568 4.928 2.536C4.928 2.504 4.928 2.472 4.928 2.424C4.928 2.344 4.928 2.28 4.928 2.232C4.944 2.184 4.96 2.136 5.008 2.088C5.04 2.056 5.072 2.024 5.104 2.008C5.136 1.992 5.168 1.976 5.216 1.976C5.28 1.976 5.328 1.992 5.36 2.024C5.424 2.072 5.424 2.072 5.488 2.12C5.504 2.184 5.52 2.232 5.536 2.264C5.552 2.312 5.552 2.36 5.552 2.424C5.552 2.52 5.536 2.6 5.504 2.648C5.472 2.712 5.408 2.744 5.328 2.76L5.36 2.776C5.376 2.792 5.392 2.792 5.408 2.792C5.456 2.792 5.488 2.792 5.504 2.808C5.52 2.824 5.552 2.856 5.584 2.872C5.6 2.76 5.616 2.648 5.632 2.568C5.648 2.488 5.664 2.408 5.664 2.312C5.664 2.184 5.648 2.088 5.632 2.024C5.616 1.944 5.6 1.88 5.552 1.832C5.488 1.768 5.44 1.72 5.376 1.704C5.328 1.688 5.264 1.672 5.184 1.672C5.12 1.672 5.072 1.688 5.008 1.704C4.96 1.72 4.912 1.736 4.848 1.784C4.816 1.848 4.784 1.896 4.768 1.944C4.736 1.976 4.736 2.024 4.736 2.088C4.736 2.184 4.736 2.28 4.768 2.344C4.784 2.424 4.816 2.504 4.848 2.584C4.864 2.584 4.88 2.584 4.896 2.584C4.928 2.6 4.944 2.6 4.96 2.6ZM5.408 3.208C5.168 3.368 4.96 3.496 4.768 3.576C4.576 3.656 4.4 3.688 4.24 3.688C4.112 3.688 3.984 3.672 3.856 3.624C3.728 3.56 3.616 3.496 3.504 3.4C3.52 3.432 3.552 3.48 3.552 3.512C3.568 3.544 3.584 3.56 3.6 3.592L3.84 3.816C3.904 3.88 4 3.944 4.08 3.976C4.176 4.008 4.256 4.04 4.352 4.04C4.496 4.04 4.64 3.992 4.784 3.928C4.944 3.848 5.104 3.752 5.296 3.608L5.632 3.4C5.664 3.368 5.696 3.32 5.728 3.272C5.76 3.24 5.776 3.192 5.776 3.128C5.776 3.112 5.776 3.096 5.776 3.08C5.776 3.064 5.76 3.064 5.744 3.064C5.728 3.016 5.664 2.968 5.568 2.92C5.472 2.872 5.328 2.808 5.152 2.76C4.976 2.68 4.832 2.616 4.704 2.584C4.576 2.552 4.48 2.536 4.4 2.536C4.336 2.536 4.272 2.552 4.176 2.584C4.08 2.616 3.968 2.68 3.84 2.76C3.728 2.84 3.632 2.904 3.568 2.984C3.504 3.064 3.472 3.128 3.472 3.208L3.488 3.224C3.504 3.256 3.52 3.272 3.536 3.32C3.648 3.416 3.776 3.48 3.888 3.528C4 3.592 4.096 3.608 4.208 3.608C4.368 3.608 4.528 3.576 4.72 3.496C4.912 3.416 5.136 3.288 5.36 3.096V3.16C5.392 3.16 5.408 3.176 5.408 3.176V3.208ZM6.272 10.776C6.336 10.904 6.432 11.016 6.56 11.08C6.688 11.144 6.832 11.176 6.992 11.176C7.024 11.176 7.056 11.176 7.088 11.176C7.12 11.176 7.152 11.16 7.2 11.144C7.232 11.144 7.28 11.144 7.312 11.128C7.344 11.112 7.376 11.096 7.392 11.08C7.408 11.064 7.424 11.064 7.456 11.048C7.472 11.032 7.488 11.016 7.488 11C7.536 10.984 7.552 10.968 7.568 10.952C7.584 10.952 7.6 10.936 7.616 10.936L8.256 10.392C8.32 10.328 8.4 10.28 8.48 10.216C8.56 10.168 8.64 10.12 8.736 10.072C8.816 10.024 8.88 9.976 8.96 9.96C9.024 9.928 9.072 9.912 9.104 9.896C9.168 9.88 9.216 9.848 9.264 9.832C9.296 9.816 9.344 9.784 9.376 9.752C9.392 9.72 9.408 9.688 9.424 9.656C9.44 9.624 9.44 9.576 9.44 9.544C9.44 9.48 9.424 9.432 9.392 9.384C9.376 9.352 9.344 9.32 9.296 9.288C9.264 9.256 9.216 9.24 9.184 9.208C9.136 9.192 9.104 9.176 9.056 9.16C9.04 9.144 8.992 9.128 8.96 9.096C8.912 9.064 8.88 9.016 8.816 8.968C8.784 8.92 8.736 8.856 8.704 8.792C8.672 8.728 8.64 8.648 8.624 8.568L8.576 8.36C8.56 8.296 8.56 8.248 8.544 8.216C8.544 8.168 8.528 8.152 8.496 8.136V8.12C8.496 8.104 8.496 8.104 8.464 8.104C8.448 8.104 8.432 8.12 8.4 8.136C8.368 8.152 8.352 8.184 8.32 8.216C8.288 8.248 8.24 8.28 8.208 8.312C8.176 8.344 8.128 8.392 8.096 8.424C8.08 8.456 8.048 8.504 8 8.536C7.952 8.568 7.92 8.584 7.872 8.616C7.824 8.648 7.776 8.68 7.712 8.696C7.664 8.712 7.616 8.728 7.568 8.728C7.424 8.728 7.296 8.712 7.216 8.664C7.136 8.616 7.072 8.552 7.008 8.472C6.976 8.408 6.944 8.36 6.928 8.296C6.896 8.216 6.88 8.152 6.864 8.056C6.832 8.024 6.8 8.008 6.768 7.992C6.736 7.976 6.72 7.976 6.688 7.976C6.576 7.976 6.512 8.024 6.48 8.12C6.448 8.216 6.416 8.36 6.416 8.552V9.72C6.416 9.736 6.416 9.768 6.4 9.8C6.384 9.832 6.384 9.88 6.384 9.944C6.368 10.008 6.352 10.072 6.352 10.136C6.336 10.2 6.336 10.264 6.336 10.344L6.272 10.76V10.776ZM0.832 10.552C1.008 10.584 1.2 10.632 1.408 10.696C1.6 10.744 1.824 10.808 2.048 10.904C2.272 10.984 2.448 11.032 2.592 11.08C2.736 11.112 2.832 11.128 2.88 11.128C3.008 11.128 3.136 11.112 3.232 11.048C3.344 10.984 3.44 10.904 3.536 10.808C3.552 10.76 3.568 10.728 3.568 10.68V10.536C3.568 10.36 3.52 10.168 3.408 9.944C3.296 9.72 3.136 9.464 2.944 9.192L2.672 8.872C2.64 8.824 2.624 8.776 2.592 8.728C2.56 8.68 2.512 8.6 2.48 8.536C2.448 8.456 2.4 8.392 2.368 8.344C2.336 8.28 2.304 8.232 2.272 8.2C2.24 8.152 2.208 8.104 2.176 8.072C2.128 8.024 2.096 7.976 2.048 7.944C2 7.896 1.952 7.864 1.888 7.832C1.824 7.8 1.776 7.784 1.712 7.768C1.632 7.784 1.568 7.8 1.504 7.832C1.456 7.864 1.424 7.896 1.392 7.928C1.36 7.96 1.344 7.992 1.328 8.04C1.312 8.072 1.312 8.12 1.312 8.152C1.296 8.2 1.296 8.232 1.28 8.248C1.264 8.28 1.248 8.296 1.232 8.312C1.216 8.328 1.184 8.328 1.152 8.344C1.136 8.36 1.088 8.376 1.056 8.376H1.008H0.944H0.832C0.736 8.376 0.656 8.376 0.592 8.392C0.528 8.408 0.48 8.424 0.432 8.44C0.384 8.504 0.352 8.552 0.336 8.616C0.304 8.68 0.304 8.744 0.304 8.792C0.304 8.824 0.304 8.872 0.304 8.92C0.32 8.968 0.336 9.032 0.352 9.112C0.352 9.176 0.368 9.24 0.384 9.288C0.384 9.352 0.384 9.4 0.384 9.432C0.384 9.512 0.384 9.592 0.352 9.656C0.336 9.736 0.304 9.816 0.256 9.896C0.192 9.976 0.16 10.056 0.144 10.104C0.112 10.168 0.112 10.216 0.112 10.248C0.128 10.328 0.208 10.392 0.32 10.44C0.448 10.488 0.624 10.536 0.832 10.552ZM2.096 7.16C2.096 7.032 2.112 6.888 2.144 6.744C2.176 6.6 2.224 6.456 2.288 6.28C2.368 6.12 2.432 5.976 2.496 5.864C2.56 5.752 2.624 5.656 2.688 5.576C2.688 5.544 2.688 5.544 2.672 5.544H2.64L2.592 5.496C2.544 5.56 2.48 5.656 2.416 5.784C2.352 5.912 2.288 6.056 2.192 6.248C2.128 6.408 2.064 6.568 2.016 6.728C1.984 6.888 1.968 7.016 1.968 7.128C1.968 7.208 1.968 7.288 2 7.368C2.016 7.432 2.048 7.496 2.08 7.56C2.128 7.624 2.208 7.688 2.304 7.784C2.4 7.88 2.512 7.992 2.672 8.088L3.072 8.36C3.296 8.536 3.456 8.68 3.552 8.824C3.664 8.952 3.712 9.048 3.712 9.112C3.712 9.16 3.696 9.208 3.68 9.24C3.664 9.288 3.632 9.32 3.568 9.368C3.536 9.416 3.488 9.448 3.44 9.464C3.392 9.48 3.36 9.496 3.312 9.496H3.296V9.528L3.328 9.592C3.344 9.624 3.376 9.672 3.424 9.752C3.504 9.864 3.616 9.944 3.776 9.992C3.952 10.04 4.144 10.072 4.352 10.072C4.768 10.072 5.136 9.976 5.456 9.816C5.776 9.64 6.064 9.4 6.304 9.064C6.304 8.968 6.304 8.888 6.304 8.824C6.304 8.776 6.288 8.728 6.256 8.712V8.568C6.256 8.44 6.272 8.328 6.288 8.248C6.304 8.152 6.336 8.072 6.384 8.008C6.416 7.96 6.448 7.912 6.496 7.896C6.528 7.864 6.576 7.848 6.64 7.848C6.672 7.848 6.72 7.864 6.752 7.864C6.784 7.88 6.832 7.912 6.864 7.928C6.88 7.784 6.896 7.64 6.896 7.512C6.896 7.4 6.912 7.272 6.912 7.16C6.912 7 6.896 6.84 6.896 6.696C6.88 6.552 6.864 6.424 6.816 6.28C6.8 6.168 6.784 6.072 6.752 5.976C6.704 5.88 6.672 5.8 6.64 5.72C6.592 5.656 6.56 5.608 6.528 5.56C6.48 5.496 6.448 5.448 6.416 5.384C6.384 5.336 6.352 5.272 6.32 5.208C6.304 5.16 6.256 5.096 6.224 5.048C6.208 4.984 6.192 4.904 6.176 4.84C6.16 4.776 6.16 4.696 6.16 4.6C6.096 4.504 6.032 4.408 6 4.312C5.968 4.216 5.904 4.136 5.856 4.04C5.824 3.96 5.776 3.864 5.744 3.768C5.696 3.672 5.664 3.592 5.632 3.512L5.296 3.784C5.104 3.912 4.944 4.008 4.784 4.056C4.624 4.12 4.48 4.152 4.352 4.152C4.24 4.152 4.144 4.136 4.048 4.12C3.968 4.088 3.888 4.04 3.824 3.96L3.6 3.784C3.6 3.832 3.6 3.896 3.584 3.976C3.568 4.04 3.536 4.12 3.504 4.184L3.248 4.632C3.2 4.76 3.152 4.872 3.136 4.952C3.104 5.032 3.088 5.096 3.072 5.16C3.072 5.208 3.072 5.24 3.072 5.272C3.072 5.304 3.056 5.32 3.056 5.32L2.768 5.88C2.624 6.152 2.496 6.424 2.432 6.68C2.352 6.936 2.32 7.176 2.32 7.384C2.32 7.432 2.32 7.464 2.32 7.512C2.32 7.56 2.336 7.608 2.336 7.656C2.256 7.592 2.192 7.512 2.144 7.432C2.112 7.352 2.096 7.272 2.096 7.16ZM4.768 10.696C4.528 10.696 4.304 10.712 4.128 10.76C3.936 10.792 3.776 10.84 3.648 10.904V10.888C3.552 11 3.44 11.096 3.344 11.144C3.232 11.208 3.104 11.224 2.96 11.224C2.864 11.224 2.752 11.208 2.608 11.176C2.464 11.144 2.288 11.08 2.112 11C1.904 10.936 1.728 10.888 1.552 10.84C1.376 10.792 1.216 10.744 1.056 10.712C1.04 10.712 1.024 10.696 0.976 10.696C0.944 10.68 0.896 10.68 0.848 10.664C0.8 10.664 0.736 10.648 0.704 10.648C0.656 10.632 0.608 10.632 0.56 10.616C0.528 10.616 0.48 10.6 0.432 10.584C0.384 10.568 0.336 10.552 0.288 10.536C0.24 10.52 0.192 10.504 0.176 10.488C0.144 10.456 0.112 10.44 0.08 10.424C0.048 10.408 0.032 10.376 0.016 10.36C0 10.328 0 10.296 0 10.264C0 10.232 0 10.2 0 10.168C0.016 10.136 0.016 10.104 0.032 10.072C0.048 10.056 0.064 10.04 0.064 10.008C0.08 9.992 0.096 9.976 0.112 9.944C0.128 9.928 0.144 9.912 0.144 9.896C0.16 9.864 0.16 9.864 0.176 9.848C0.176 9.832 0.176 9.816 0.192 9.784C0.192 9.768 0.208 9.752 0.208 9.736C0.224 9.72 0.224 9.704 0.24 9.688C0.24 9.672 0.256 9.64 0.256 9.624C0.256 9.608 0.256 9.592 0.272 9.56C0.272 9.544 0.272 9.528 0.272 9.512C0.272 9.496 0.272 9.448 0.256 9.4C0.256 9.336 0.24 9.272 0.224 9.16C0.208 9.064 0.192 8.984 0.192 8.92C0.176 8.856 0.176 8.824 0.176 8.792C0.176 8.712 0.192 8.632 0.208 8.568C0.224 8.504 0.256 8.456 0.304 8.408C0.352 8.36 0.384 8.328 0.432 8.312C0.464 8.28 0.512 8.264 0.56 8.264H0.976C0.992 8.264 1.008 8.264 1.04 8.248C1.072 8.248 1.104 8.232 1.136 8.2C1.152 8.168 1.152 8.136 1.168 8.12C1.184 8.088 1.2 8.072 1.2 8.04C1.216 8.024 1.216 8.008 1.232 7.992C1.232 7.976 1.232 7.96 1.232 7.96C1.248 7.944 1.248 7.944 1.248 7.928C1.264 7.912 1.264 7.896 1.264 7.896C1.264 7.88 1.28 7.864 1.296 7.848C1.296 7.832 1.312 7.816 1.312 7.8C1.296 7.784 1.296 7.768 1.28 7.736C1.28 7.72 1.264 7.688 1.264 7.656V7.592C1.264 7.576 1.28 7.56 1.28 7.56C1.28 7.48 1.296 7.4 1.328 7.304C1.36 7.208 1.408 7.112 1.488 6.984L1.616 6.744C1.664 6.648 1.712 6.552 1.76 6.472C1.808 6.392 1.84 6.312 1.872 6.248C1.904 6.168 1.936 6.072 1.968 5.96C2 5.848 2.048 5.72 2.08 5.576C2.112 5.432 2.144 5.304 2.224 5.176C2.288 5.048 2.384 4.92 2.496 4.792L2.768 4.456C2.88 4.344 2.96 4.232 3.024 4.136C3.088 4.04 3.136 3.96 3.168 3.896C3.2 3.816 3.232 3.736 3.248 3.64C3.264 3.56 3.28 3.48 3.28 3.4C3.28 3.368 3.28 3.288 3.264 3.176C3.248 3.064 3.232 2.92 3.216 2.728C3.2 2.536 3.184 2.36 3.168 2.168C3.168 1.992 3.168 1.816 3.168 1.64C3.168 1.512 3.168 1.384 3.184 1.288C3.184 1.192 3.2 1.096 3.232 1C3.248 0.919999 3.296 0.823999 3.344 0.743999C3.376 0.648 3.44 0.568 3.504 0.488C3.552 0.407999 3.616 0.344 3.696 0.264C3.776 0.2 3.872 0.151999 3.984 0.12C4.096 0.0719995 4.224 0.039999 4.352 0.0239992C4.48 0.00799942 4.624 -0.00800037 4.768 -0.00800037C4.816 -0.00800037 4.88 -0.00800037 4.944 0.00799942C4.992 0.00799942 5.056 0.0239992 5.104 0.039999C5.152 0.039999 5.232 0.0559998 5.296 0.0719995C5.376 0.0879993 5.456 0.103999 5.536 0.151999C5.616 0.183999 5.696 0.231999 5.776 0.264C5.84 0.311999 5.904 0.36 5.968 0.407999C6.048 0.471999 6.112 0.535999 6.176 0.632C6.224 0.712 6.288 0.792 6.336 0.903999C6.384 1.016 6.416 1.128 6.448 1.24C6.48 1.352 6.512 1.496 6.512 1.64C6.544 1.736 6.56 1.832 6.56 1.928C6.56 2.04 6.576 2.152 6.592 2.28C6.592 2.392 6.608 2.488 6.624 2.568C6.624 2.632 6.64 2.712 6.64 2.76C6.656 2.824 6.656 2.888 6.672 2.968C6.672 3.048 6.688 3.128 6.72 3.208C6.736 3.288 6.752 3.368 6.768 3.448C6.8 3.512 6.832 3.576 6.864 3.624C6.896 3.704 6.928 3.784 6.976 3.848C7.008 3.928 7.056 4.008 7.12 4.088C7.184 4.168 7.248 4.264 7.328 4.376C7.392 4.472 7.456 4.568 7.52 4.664C7.696 4.856 7.84 5.048 7.968 5.256C8.112 5.464 8.208 5.672 8.288 5.88C8.384 6.056 8.448 6.264 8.512 6.504C8.56 6.744 8.576 6.984 8.576 7.256C8.576 7.384 8.576 7.512 8.56 7.64C8.528 7.768 8.512 7.88 8.464 8.008C8.512 8.008 8.528 8.008 8.56 8.024C8.576 8.024 8.608 8.056 8.624 8.088C8.64 8.104 8.656 8.152 8.672 8.2C8.688 8.264 8.704 8.344 8.736 8.44L8.768 8.712C8.784 8.744 8.8 8.776 8.832 8.824C8.864 8.856 8.896 8.904 8.944 8.936C8.992 8.968 9.024 9 9.072 9.016C9.12 9.048 9.168 9.064 9.216 9.096C9.248 9.112 9.296 9.144 9.344 9.176C9.408 9.192 9.44 9.224 9.472 9.256C9.52 9.288 9.536 9.336 9.568 9.368C9.584 9.416 9.6 9.448 9.6 9.496C9.6 9.56 9.584 9.608 9.568 9.656C9.536 9.704 9.52 9.752 9.472 9.784C9.44 9.832 9.392 9.864 9.36 9.88C9.328 9.912 9.28 9.928 9.216 9.944C9.184 9.96 9.12 9.992 9.056 10.024C8.976 10.056 8.88 10.104 8.768 10.168C8.672 10.216 8.576 10.28 8.496 10.344C8.4 10.408 8.304 10.488 8.208 10.552L7.824 10.888C7.76 10.952 7.696 11.016 7.616 11.064C7.536 11.128 7.472 11.16 7.44 11.192C7.376 11.24 7.296 11.256 7.232 11.272C7.152 11.288 7.088 11.304 7.008 11.304L6.752 11.256C6.592 11.224 6.464 11.16 6.384 11.08C6.288 11.016 6.208 10.92 6.16 10.824C5.856 10.776 5.584 10.744 5.344 10.728C5.104 10.712 4.912 10.696 4.768 10.696Z" fill="white"/>
</svg>
