<svg xmlns="http://www.w3.org/2000/svg" width="1000" height="224" class="svgbob"><style>.svgbob line, .svgbob path, .svgbob circle, .svgbob rect, .svgbob polygon {
    stroke: #c9d1d9;
    stroke-width: 2;
    stroke-opacity: 1;
    fill-opacity: 1;
    stroke-linecap: round;
    stroke-linejoin: miter;
}
.svgbob text {
    white-space: pre;
    fill: #c9d1d9;
    font-family: Iosevka Fixed, monospace;
    font-size: 14px;
}
.svgbob rect.backdrop {
    stroke: none;
    fill: #0d1117;
}
.svgbob .broken {
    stroke-dasharray: 8;
}
.svgbob .filled {
    fill: #c9d1d9;;
}
.svgbob .bg_filled {
    fill: #c9d1d9;
    stroke-width: 1;
}
.svgbob .nofill {
    fill: #c9d1d9;
}
.svgbob .end_marked_arrow {
    marker-end: url(#arrow);
}
.svgbob .start_marked_arrow {
    marker-start: url(#arrow);
}
.svgbob .end_marked_diamond {
    marker-end: url(#diamond);
}
.svgbob .start_marked_diamond {
    marker-start: url(#diamond);
}
.svgbob .end_marked_circle {
    marker-end: url(#circle);
}
.svgbob .start_marked_circle {
    marker-start: url(#circle);
}
.svgbob .end_marked_open_circle {
    marker-end: url(#open_circle);
}
.svgbob .start_marked_open_circle {
    marker-start: url(#open_circle);
}
.svgbob .end_marked_big_open_circle {
    marker-end: url(#big_open_circle);
}
.svgbob .start_marked_big_open_circle {
    marker-start: url(#big_open_circle);
}<!--separator--></style><defs><marker id="arrow" viewBox="-2 -2 8 8" refX="4" refY="2" markerWidth="7" markerHeight="7" orient="auto-start-reverse"><polygon points="0,0 0,4 4,2 0,0"></polygon></marker><marker id="diamond" viewBox="-2 -2 8 8" refX="4" refY="2" markerWidth="7" markerHeight="7" orient="auto-start-reverse"><polygon points="0,2 2,0 4,2 2,4 0,2"></polygon></marker><marker id="circle" viewBox="0 0 8 8" refX="4" refY="4" markerWidth="7" markerHeight="7" orient="auto-start-reverse"><circle cx="4" cy="4" r="2" class="filled"></circle></marker><marker id="open_circle" viewBox="0 0 8 8" refX="4" refY="4" markerWidth="7" markerHeight="7" orient="auto-start-reverse"><circle cx="4" cy="4" r="2" class="bg_filled"></circle></marker><marker id="big_open_circle" viewBox="0 0 8 8" refX="4" refY="4" markerWidth="7" markerHeight="7" orient="auto-start-reverse"><circle cx="4" cy="4" r="3" class="bg_filled"></circle></marker></defs><rect class="backdrop" x="0" y="0" width="1000" height="224"></rect><text x="74" y="76" >:</text><text x="82" y="92" >:</text><text x="58" y="108" >:</text><text x="90" y="108" >:</text><text x="66" y="124" >:</text><text x="42" y="140" >:</text><text x="74" y="140" >:</text><text x="50" y="156" >:</text><text x="90" y="156" >:</text><text x="58" y="172" >:</text><text x="66" y="188" >::</text><text x="178" y="76" >::</text><text x="170" y="92" >:</text><text x="162" y="108" >:</text><text x="202" y="108" >:</text><text x="186" y="124" >:</text><text x="210" y="124" >:</text><text x="178" y="140" >:</text><text x="162" y="156" >:</text><text x="178" y="188" >:</text><text x="514" y="76" >:</text><text x="506" y="92" >:</text><text x="498" y="108" >:</text><text x="530" y="108" >:</text><text x="522" y="124" >:</text><text x="514" y="140" >:</text><text x="546" y="140" >:</text><text x="498" y="156" >:</text><text x="538" y="156" >:</text><text x="530" y="172" >:</text><text x="514" y="188" >::</text><text x="634" y="76" >:</text><text x="642" y="92" >:</text><text x="610" y="124" >:::::</text><text x="658" y="124" >:</text><line x1="632" y1="128" x2="640" y2="144" class="solid"></line><text x="610" y="156" >:</text><line x1="640" y1="152" x2="664" y2="152" class="broken"></line><text x="618" y="172" >:</text><text x="626" y="188" >:</text><text x="738" y="76" >::</text><text x="730" y="92" >:</text><text x="722" y="108" >:</text><text x="762" y="108" >:</text><text x="746" y="124" >:</text><text x="770" y="124" >:</text><text x="738" y="140" >:</text><text x="722" y="156" >:</text><text x="738" y="188" >:</text><text x="850" y="76" >::</text><text x="842" y="92" >:</text><text x="834" y="108" >:</text><text x="850" y="140" >:</text><text x="866" y="140" >:::</text><text x="834" y="156" >:</text><text x="850" y="188" >:</text><text x="962" y="92" >:</text><text x="946" y="124" >:</text><text x="938" y="140" >:</text><text x="962" y="140" >:</text><text x="970" y="156" >:</text><text x="978" y="172" >:</text><text x="266" y="124" >:</text><text x="322" y="124" >:</text><text x="274" y="140" >:</text><text x="314" y="140" >:</text><text x="282" y="156" >:</text><text x="306" y="156" >:</text><text x="290" y="172" >::</text><text x="378" y="124" >:</text><text x="434" y="124" >:</text><text x="386" y="140" >:</text><text x="426" y="140" >:</text><text x="394" y="156" >:</text><text x="418" y="156" >:</text><text x="402" y="172" >::</text><g><line x1="48" y1="48" x2="72" y2="48" class="solid"></line><line x1="48" y1="48" x2="40" y2="64" class="solid"></line><line x1="40" y1="64" x2="64" y2="64" class="solid"></line><line x1="72" y1="48" x2="64" y2="64" class="solid"></line><line x1="72" y1="48" x2="112" y2="128" class="solid"></line><line x1="76" y1="56" x2="76" y2="64" class="solid"></line><line x1="64" y1="64" x2="96" y2="128" class="solid"></line><line x1="84" y1="72" x2="84" y2="80" class="solid"></line><line x1="92" y1="88" x2="92" y2="96" class="solid"></line><line x1="100" y1="104" x2="100" y2="144" class="broken"></line><line x1="96" y1="128" x2="92" y2="136" class="solid"></line><line x1="92" y1="136" x2="92" y2="144" class="solid"></line><line x1="32" y1="80" x2="56" y2="80" class="solid"></line><line x1="40" y1="64" x2="48" y2="80" class="solid"></line><line x1="32" y1="80" x2="24" y2="96" class="solid"></line><line x1="24" y1="96" x2="48" y2="96" class="solid"></line><line x1="56" y1="80" x2="48" y2="96" class="solid"></line><line x1="56" y1="80" x2="88" y2="144" class="solid"></line><line x1="60" y1="88" x2="60" y2="96" class="solid"></line><line x1="48" y1="96" x2="80" y2="160" class="solid"></line><line x1="68" y1="104" x2="68" y2="112" class="solid"></line><line x1="76" y1="120" x2="76" y2="128" class="solid"></line><line x1="84" y1="136" x2="84" y2="176" class="broken"></line><line x1="80" y1="160" x2="76" y2="168" class="solid"></line><line x1="76" y1="168" x2="76" y2="176" class="solid"></line><line x1="16" y1="112" x2="40" y2="112" class="solid"></line><line x1="24" y1="96" x2="32" y2="112" class="solid"></line><line x1="16" y1="112" x2="8" y2="128" class="solid"></line><line x1="8" y1="128" x2="32" y2="128" class="solid"></line><line x1="40" y1="112" x2="32" y2="128" class="solid"></line><line x1="40" y1="112" x2="72" y2="176" class="solid"></line><line x1="44" y1="120" x2="44" y2="128" class="solid"></line><line x1="8" y1="128" x2="48" y2="208" class="solid"></line><line x1="32" y1="128" x2="72" y2="208" class="solid"></line><line x1="52" y1="136" x2="52" y2="144" class="solid"></line><line x1="112" y1="128" x2="72" y2="208" class="solid"></line><line x1="60" y1="152" x2="60" y2="160" class="solid"></line><line x1="68" y1="168" x2="68" y2="176" class="solid"></line><line x1="48" y1="208" x2="72" y2="208" class="solid"></line></g><g><line x1="160" y1="48" x2="184" y2="48" class="solid"></line><line x1="160" y1="48" x2="120" y2="128" class="solid"></line><line x1="184" y1="48" x2="180" y2="56" class="solid"></line><line x1="180" y1="56" x2="180" y2="64" class="solid"></line><line x1="184" y1="48" x2="224" y2="128" class="solid"></line><line x1="188" y1="56" x2="188" y2="64" class="solid"></line><line x1="196" y1="72" x2="196" y2="112" class="broken"></line><line x1="204" y1="88" x2="204" y2="96" class="solid"></line><line x1="212" y1="104" x2="212" y2="112" class="solid"></line><line x1="120" y1="128" x2="144" y2="128" class="solid"></line><line x1="152" y1="112" x2="144" y2="128" class="solid"></line><line x1="120" y1="128" x2="160" y2="208" class="solid"></line><line x1="144" y1="128" x2="184" y2="208" class="solid"></line><line x1="160" y1="208" x2="184" y2="208" class="solid"></line><line x1="200" y1="112" x2="176" y2="160" class="solid"></line><line x1="200" y1="112" x2="216" y2="144" class="solid"></line><line x1="184" y1="144" x2="216" y2="144" class="solid"></line><line x1="224" y1="128" x2="216" y2="144" class="solid"></line><line x1="176" y1="160" x2="192" y2="192" class="solid"></line><line x1="180" y1="168" x2="180" y2="176" class="solid"></line><line x1="192" y1="192" x2="184" y2="208" class="solid"></line></g><g><line x1="176" y1="64" x2="172" y2="72" class="solid"></line><line x1="172" y1="72" x2="172" y2="80" class="solid"></line></g><g><line x1="168" y1="80" x2="164" y2="88" class="solid"></line><line x1="164" y1="88" x2="164" y2="96" class="solid"></line></g><g><line x1="184" y1="80" x2="160" y2="128" class="solid"></line><line x1="184" y1="80" x2="192" y2="96" class="solid"></line><line x1="172" y1="104" x2="188" y2="104" class="broken"></line><line x1="192" y1="96" x2="188" y2="104" class="solid"></line><line x1="188" y1="104" x2="188" y2="112" class="solid"></line><line x1="160" y1="128" x2="168" y2="144" class="solid"></line><line x1="164" y1="136" x2="164" y2="144" class="solid"></line></g><g><line x1="160" y1="96" x2="156" y2="104" class="solid"></line><line x1="156" y1="104" x2="156" y2="144" class="broken"></line></g><g><line x1="184" y1="112" x2="180" y2="120" class="solid"></line><line x1="180" y1="120" x2="180" y2="128" class="solid"></line></g><g><line x1="176" y1="128" x2="172" y2="136" class="solid"></line><line x1="172" y1="136" x2="172" y2="176" class="broken"></line></g><g><line x1="496" y1="48" x2="520" y2="48" class="solid"></line><line x1="496" y1="48" x2="456" y2="128" class="solid"></line><line x1="520" y1="48" x2="516" y2="56" class="solid"></line><line x1="516" y1="56" x2="516" y2="64" class="solid"></line><line x1="520" y1="48" x2="528" y2="64" class="solid"></line><line x1="528" y1="64" x2="496" y2="128" class="solid"></line><line x1="520" y1="80" x2="536" y2="80" class="solid"></line><line x1="536" y1="80" x2="532" y2="88" class="solid"></line><line x1="532" y1="88" x2="532" y2="96" class="solid"></line><line x1="536" y1="80" x2="544" y2="96" class="solid"></line><line x1="544" y1="96" x2="512" y2="160" class="solid"></line><line x1="536" y1="112" x2="552" y2="112" class="solid"></line><line x1="456" y1="128" x2="480" y2="128" class="solid"></line><line x1="488" y1="112" x2="480" y2="128" class="solid"></line><line x1="552" y1="112" x2="548" y2="120" class="solid"></line><line x1="548" y1="120" x2="548" y2="128" class="solid"></line><line x1="552" y1="112" x2="560" y2="128" class="solid"></line><line x1="456" y1="128" x2="496" y2="208" class="solid"></line><line x1="480" y1="128" x2="520" y2="208" class="solid"></line><line x1="496" y1="128" x2="504" y2="144" class="solid"></line><line x1="500" y1="136" x2="500" y2="144" class="solid"></line><line x1="560" y1="128" x2="520" y2="208" class="solid"></line><line x1="512" y1="160" x2="520" y2="176" class="solid"></line><line x1="516" y1="168" x2="516" y2="176" class="solid"></line><line x1="496" y1="208" x2="520" y2="208" class="solid"></line></g><g><line x1="512" y1="64" x2="508" y2="72" class="solid"></line><line x1="508" y1="72" x2="508" y2="80" class="solid"></line></g><g><line x1="504" y1="80" x2="500" y2="88" class="solid"></line><line x1="500" y1="88" x2="500" y2="96" class="solid"></line></g><g><line x1="496" y1="96" x2="492" y2="104" class="solid"></line><line x1="492" y1="104" x2="492" y2="144" class="broken"></line></g><g><line x1="528" y1="96" x2="524" y2="104" class="solid"></line><line x1="524" y1="104" x2="524" y2="112" class="solid"></line></g><g><line x1="520" y1="112" x2="516" y2="120" class="solid"></line><line x1="516" y1="120" x2="516" y2="128" class="solid"></line></g><g><line x1="512" y1="128" x2="508" y2="136" class="solid"></line><line x1="508" y1="136" x2="508" y2="176" class="broken"></line></g><g><line x1="544" y1="128" x2="540" y2="136" class="solid"></line><line x1="540" y1="136" x2="540" y2="144" class="solid"></line></g><g><line x1="536" y1="144" x2="532" y2="152" class="solid"></line><line x1="532" y1="152" x2="532" y2="160" class="solid"></line></g><g><line x1="528" y1="160" x2="524" y2="168" class="solid"></line><line x1="524" y1="168" x2="524" y2="176" class="solid"></line></g><g><line x1="608" y1="48" x2="632" y2="48" class="solid"></line><line x1="608" y1="48" x2="600" y2="64" class="solid"></line><line x1="600" y1="64" x2="624" y2="64" class="solid"></line><line x1="632" y1="48" x2="624" y2="64" class="solid"></line><line x1="632" y1="48" x2="672" y2="128" class="solid"></line><line x1="636" y1="56" x2="636" y2="64" class="solid"></line><line x1="600" y1="64" x2="624" y2="112" class="solid"></line><line x1="624" y1="64" x2="648" y2="112" class="solid"></line><line x1="644" y1="72" x2="644" y2="80" class="solid"></line><line x1="652" y1="88" x2="652" y2="128" class="broken"></line><line x1="576" y1="112" x2="648" y2="112" class="solid"></line><line x1="620" y1="104" x2="620" y2="112" class="solid"></line><line x1="644" y1="104" x2="644" y2="112" class="solid"></line><line x1="660" y1="104" x2="660" y2="112" class="solid"></line><line x1="576" y1="112" x2="568" y2="128" class="solid"></line><line x1="568" y1="128" x2="592" y2="128" class="solid"></line><line x1="600" y1="112" x2="592" y2="128" class="solid"></line><line x1="604" y1="112" x2="604" y2="144" class="broken"></line><line x1="568" y1="128" x2="608" y2="208" class="solid"></line><line x1="592" y1="128" x2="632" y2="208" class="solid"></line><line x1="608" y1="208" x2="632" y2="208" class="solid"></line><line x1="608" y1="128" x2="640" y2="192" class="solid"></line><line x1="612" y1="136" x2="660" y2="136" class="broken"></line><line x1="612" y1="136" x2="612" y2="144" class="solid"></line><line x1="656" y1="128" x2="664" y2="144" class="solid"></line><line x1="672" y1="128" x2="664" y2="144" class="solid"></line><line x1="620" y1="152" x2="620" y2="160" class="solid"></line><line x1="628" y1="168" x2="628" y2="176" class="solid"></line><line x1="640" y1="192" x2="632" y2="208" class="solid"></line></g><g><line x1="720" y1="48" x2="744" y2="48" class="solid"></line><line x1="720" y1="48" x2="680" y2="128" class="solid"></line><line x1="744" y1="48" x2="740" y2="56" class="solid"></line><line x1="740" y1="56" x2="740" y2="64" class="solid"></line><line x1="744" y1="48" x2="784" y2="128" class="solid"></line><line x1="748" y1="56" x2="748" y2="64" class="solid"></line><line x1="756" y1="72" x2="756" y2="112" class="broken"></line><line x1="764" y1="88" x2="764" y2="96" class="solid"></line><line x1="772" y1="104" x2="772" y2="112" class="solid"></line><line x1="680" y1="128" x2="704" y2="128" class="solid"></line><line x1="712" y1="112" x2="704" y2="128" class="solid"></line><line x1="680" y1="128" x2="720" y2="208" class="solid"></line><line x1="704" y1="128" x2="744" y2="208" class="solid"></line><line x1="720" y1="208" x2="744" y2="208" class="solid"></line><line x1="760" y1="112" x2="736" y2="160" class="solid"></line><line x1="760" y1="112" x2="776" y2="144" class="solid"></line><line x1="744" y1="144" x2="776" y2="144" class="solid"></line><line x1="784" y1="128" x2="776" y2="144" class="solid"></line><line x1="736" y1="160" x2="752" y2="192" class="solid"></line><line x1="740" y1="168" x2="740" y2="176" class="solid"></line><line x1="752" y1="192" x2="744" y2="208" class="solid"></line></g><g><line x1="736" y1="64" x2="732" y2="72" class="solid"></line><line x1="732" y1="72" x2="732" y2="80" class="solid"></line></g><g><line x1="728" y1="80" x2="724" y2="88" class="solid"></line><line x1="724" y1="88" x2="724" y2="96" class="solid"></line></g><g><line x1="744" y1="80" x2="720" y2="128" class="solid"></line><line x1="744" y1="80" x2="752" y2="96" class="solid"></line><line x1="732" y1="104" x2="748" y2="104" class="broken"></line><line x1="752" y1="96" x2="748" y2="104" class="solid"></line><line x1="748" y1="104" x2="748" y2="112" class="solid"></line><line x1="720" y1="128" x2="728" y2="144" class="solid"></line><line x1="724" y1="136" x2="724" y2="144" class="solid"></line></g><g><line x1="720" y1="96" x2="716" y2="104" class="solid"></line><line x1="716" y1="104" x2="716" y2="144" class="broken"></line></g><g><line x1="744" y1="112" x2="740" y2="120" class="solid"></line><line x1="740" y1="120" x2="740" y2="128" class="solid"></line></g><g><line x1="736" y1="128" x2="732" y2="136" class="solid"></line><line x1="732" y1="136" x2="732" y2="176" class="broken"></line></g><g><line x1="832" y1="48" x2="856" y2="48" class="solid"></line><line x1="832" y1="48" x2="792" y2="128" class="solid"></line><line x1="856" y1="48" x2="852" y2="56" class="solid"></line><line x1="852" y1="56" x2="852" y2="64" class="solid"></line><line x1="856" y1="48" x2="880" y2="96" class="solid"></line><line x1="860" y1="56" x2="860" y2="64" class="solid"></line><line x1="868" y1="72" x2="868" y2="112" class="broken"></line><line x1="880" y1="96" x2="868" y2="120" class="solid"></line><line x1="792" y1="128" x2="816" y2="128" class="solid"></line><line x1="824" y1="112" x2="816" y2="128" class="solid"></line><line x1="868" y1="120" x2="868" y2="128" class="solid"></line><line x1="864" y1="128" x2="896" y2="128" class="solid"></line><line x1="792" y1="128" x2="832" y2="208" class="solid"></line><line x1="816" y1="128" x2="856" y2="208" class="solid"></line><line x1="896" y1="128" x2="888" y2="144" class="solid"></line><line x1="832" y1="208" x2="856" y2="208" class="solid"></line><line x1="856" y1="144" x2="848" y2="160" class="solid"></line><line x1="852" y1="152" x2="888" y2="152" class="broken"></line><line x1="848" y1="160" x2="864" y2="192" class="solid"></line><line x1="852" y1="168" x2="852" y2="176" class="solid"></line><line x1="864" y1="192" x2="856" y2="208" class="solid"></line></g><g><line x1="848" y1="64" x2="844" y2="72" class="solid"></line><line x1="844" y1="72" x2="844" y2="80" class="solid"></line></g><g><line x1="840" y1="80" x2="836" y2="88" class="solid"></line><line x1="836" y1="88" x2="836" y2="96" class="solid"></line></g><g><line x1="856" y1="80" x2="832" y2="128" class="solid"></line><line x1="856" y1="80" x2="864" y2="96" class="solid"></line><line x1="844" y1="104" x2="860" y2="104" class="broken"></line><line x1="864" y1="96" x2="860" y2="104" class="solid"></line><line x1="860" y1="104" x2="860" y2="144" class="broken"></line><line x1="832" y1="128" x2="840" y2="144" class="solid"></line><line x1="836" y1="136" x2="836" y2="144" class="solid"></line></g><g><line x1="832" y1="96" x2="828" y2="104" class="solid"></line><line x1="828" y1="104" x2="828" y2="144" class="broken"></line></g><g><line x1="856" y1="112" x2="852" y2="120" class="solid"></line><line x1="852" y1="120" x2="852" y2="128" class="solid"></line></g><g><line x1="848" y1="128" x2="844" y2="136" class="solid"></line><line x1="844" y1="136" x2="844" y2="176" class="broken"></line></g><g><line x1="944" y1="64" x2="968" y2="64" class="solid"></line><line x1="944" y1="64" x2="904" y2="144" class="solid"></line><line x1="968" y1="64" x2="964" y2="72" class="solid"></line><line x1="964" y1="72" x2="964" y2="80" class="solid"></line><line x1="968" y1="64" x2="976" y2="80" class="solid"></line><line x1="976" y1="80" x2="960" y2="112" class="solid"></line><line x1="960" y1="112" x2="992" y2="176" class="solid"></line><line x1="964" y1="120" x2="964" y2="128" class="solid"></line><line x1="904" y1="144" x2="928" y2="144" class="solid"></line><line x1="936" y1="128" x2="928" y2="144" class="solid"></line><line x1="972" y1="136" x2="972" y2="144" class="solid"></line><line x1="904" y1="144" x2="912" y2="160" class="solid"></line><line x1="980" y1="152" x2="980" y2="160" class="solid"></line><line x1="952" y1="128" x2="936" y2="160" class="solid"></line><line x1="952" y1="128" x2="984" y2="192" class="solid"></line><line x1="912" y1="160" x2="936" y2="160" class="solid"></line><line x1="928" y1="144" x2="936" y2="160" class="solid"></line><line x1="944" y1="160" x2="960" y2="192" class="solid"></line><line x1="960" y1="192" x2="984" y2="192" class="solid"></line><line x1="992" y1="176" x2="984" y2="192" class="solid"></line></g><g><line x1="960" y1="80" x2="956" y2="88" class="solid"></line><line x1="956" y1="88" x2="956" y2="128" class="broken"></line></g><g><line x1="952" y1="96" x2="948" y2="104" class="solid"></line><line x1="948" y1="104" x2="948" y2="112" class="solid"></line></g><g><line x1="944" y1="112" x2="940" y2="120" class="solid"></line><line x1="940" y1="120" x2="940" y2="128" class="solid"></line></g><g><line x1="240" y1="96" x2="264" y2="96" class="solid"></line><line x1="240" y1="96" x2="232" y2="112" class="solid"></line><line x1="232" y1="112" x2="256" y2="112" class="solid"></line><line x1="264" y1="96" x2="256" y2="112" class="solid"></line><line x1="264" y1="96" x2="296" y2="160" class="solid"></line><line x1="268" y1="104" x2="268" y2="112" class="solid"></line><line x1="232" y1="112" x2="272" y2="192" class="solid"></line><line x1="256" y1="112" x2="296" y2="192" class="solid"></line><line x1="276" y1="120" x2="276" y2="128" class="solid"></line><line x1="284" y1="136" x2="284" y2="144" class="solid"></line><line x1="292" y1="152" x2="292" y2="160" class="solid"></line><line x1="304" y1="96" x2="328" y2="96" class="solid"></line><line x1="304" y1="96" x2="288" y2="128" class="solid"></line><line x1="328" y1="96" x2="324" y2="104" class="solid"></line><line x1="324" y1="104" x2="324" y2="112" class="solid"></line><line x1="328" y1="96" x2="336" y2="112" class="solid"></line><line x1="336" y1="112" x2="296" y2="192" class="solid"></line><line x1="272" y1="192" x2="296" y2="192" class="solid"></line></g><g><line x1="320" y1="112" x2="316" y2="120" class="solid"></line><line x1="316" y1="120" x2="316" y2="128" class="solid"></line></g><g><line x1="312" y1="128" x2="308" y2="136" class="solid"></line><line x1="308" y1="136" x2="308" y2="144" class="solid"></line></g><g><line x1="304" y1="144" x2="300" y2="152" class="solid"></line><line x1="300" y1="152" x2="300" y2="160" class="solid"></line></g><g><line x1="352" y1="96" x2="376" y2="96" class="solid"></line><line x1="352" y1="96" x2="344" y2="112" class="solid"></line><line x1="344" y1="112" x2="368" y2="112" class="solid"></line><line x1="376" y1="96" x2="368" y2="112" class="solid"></line><line x1="376" y1="96" x2="408" y2="160" class="solid"></line><line x1="380" y1="104" x2="380" y2="112" class="solid"></line><line x1="344" y1="112" x2="384" y2="192" class="solid"></line><line x1="368" y1="112" x2="408" y2="192" class="solid"></line><line x1="388" y1="120" x2="388" y2="128" class="solid"></line><line x1="396" y1="136" x2="396" y2="144" class="solid"></line><line x1="404" y1="152" x2="404" y2="160" class="solid"></line><line x1="416" y1="96" x2="440" y2="96" class="solid"></line><line x1="416" y1="96" x2="400" y2="128" class="solid"></line><line x1="440" y1="96" x2="436" y2="104" class="solid"></line><line x1="436" y1="104" x2="436" y2="112" class="solid"></line><line x1="440" y1="96" x2="448" y2="112" class="solid"></line><line x1="448" y1="112" x2="408" y2="192" class="solid"></line><line x1="384" y1="192" x2="408" y2="192" class="solid"></line></g><g><line x1="432" y1="112" x2="428" y2="120" class="solid"></line><line x1="428" y1="120" x2="428" y2="128" class="solid"></line></g><g><line x1="424" y1="128" x2="420" y2="136" class="solid"></line><line x1="420" y1="136" x2="420" y2="144" class="solid"></line></g><g><line x1="416" y1="144" x2="412" y2="152" class="solid"></line><line x1="412" y1="152" x2="412" y2="160" class="solid"></line></g></svg>
