<svg xmlns="http://www.w3.org/2000/svg" class="svgbob" width="1000" height="224"><style>.svgbob line, .svgbob path, .svgbob circle, .svgbob rect, .svgbob polygon {
    stroke: #c9d1d9;
    stroke-width: 2;
    stroke-opacity: 1;
    fill-opacity: 1;
    stroke-linecap: round;
    stroke-linejoin: miter;
}
.svgbob text {
    white-space: pre;
    fill: #c9d1d9;
    font-family: Iosevka Fixed, monospace;
    font-size: 14px;
}
.svgbob rect.backdrop {
    stroke: none;
    fill: #0d1117;
}
.svgbob .broken {
    stroke-dasharray: 8;
}
.svgbob .filled {
    fill: #c9d1d9;;
}
.svgbob .bg_filled {
    fill: #c9d1d9;
    stroke-width: 1;
}
.svgbob .nofill {
    fill: #c9d1d9;
}
.svgbob .end_marked_arrow {
    marker-end: url(#arrow);
}
.svgbob .start_marked_arrow {
    marker-start: url(#arrow);
}
.svgbob .end_marked_diamond {
    marker-end: url(#diamond);
}
.svgbob .start_marked_diamond {
    marker-start: url(#diamond);
}
.svgbob .end_marked_circle {
    marker-end: url(#circle);
}
.svgbob .start_marked_circle {
    marker-start: url(#circle);
}
.svgbob .end_marked_open_circle {
    marker-end: url(#open_circle);
}
.svgbob .start_marked_open_circle {
    marker-start: url(#open_circle);
}
.svgbob .end_marked_big_open_circle {
    marker-end: url(#big_open_circle);
}
.svgbob .start_marked_big_open_circle {
    marker-start: url(#big_open_circle);
}<!--separator--></style><defs><marker id="arrow" viewBox="-2 -2 8 8" refX="4" refY="2" markerWidth="7" markerHeight="7" orient="auto-start-reverse"><polygon points="0,0 0,4 4,2 0,0"></polygon></marker><marker id="diamond" viewBox="-2 -2 8 8" refX="4" refY="2" markerWidth="7" markerHeight="7" orient="auto-start-reverse"><polygon points="0,2 2,0 4,2 2,4 0,2"></polygon></marker><marker id="circle" viewBox="0 0 8 8" refX="4" refY="4" markerWidth="7" markerHeight="7" orient="auto-start-reverse"><circle cx="4" cy="4" r="2" class="filled"></circle></marker><marker id="open_circle" viewBox="0 0 8 8" refX="4" refY="4" markerWidth="7" markerHeight="7" orient="auto-start-reverse"><circle cx="4" cy="4" r="2" class="bg_filled"></circle></marker><marker id="big_open_circle" viewBox="0 0 8 8" refX="4" refY="4" markerWidth="7" markerHeight="7" orient="auto-start-reverse"><circle cx="4" cy="4" r="3" class="bg_filled"></circle></marker></defs><rect class="backdrop" x="0" y="0" width="952" height="224"></rect><text x="66" y="76" >:</text><text x="58" y="92" >:</text><text x="50" y="108" >:</text><text x="82" y="108" >:</text><text x="74" y="124" >:</text><text x="66" y="140" >:</text><text x="98" y="140" >:</text><text x="50" y="156" >:</text><text x="90" y="156" >:</text><text x="82" y="172" >:</text><text x="66" y="188" >::</text><text x="178" y="76" >::</text><text x="194" y="92" >:</text><text x="162" y="108" >:</text><text x="202" y="108" >:</text><text x="154" y="124" >:</text><text x="178" y="124" >:</text><text x="186" y="140" >:</text><text x="202" y="156" >:</text><text x="186" y="188" >:</text><text x="290" y="76" >:</text><text x="282" y="92" >:</text><text x="274" y="108" >:</text><text x="274" y="156" >:</text><text x="282" y="172" >:</text><text x="290" y="188" >:</text><text x="370" y="76" >:</text><text x="362" y="92" >:</text><text x="354" y="108" >:</text><text x="354" y="156" >:</text><text x="362" y="172" >:</text><text x="370" y="188" >:</text><text x="450" y="76" >::</text><text x="466" y="92" >:</text><text x="434" y="108" >:</text><text x="474" y="108" >:</text><text x="450" y="124" >:</text><text x="482" y="124" >:</text><text x="458" y="140" >:</text><text x="434" y="156" >:</text><text x="466" y="156" >:</text><text x="442" y="172" >:</text><text x="450" y="188" >:</text><text x="578" y="76" >|</text><text x="554" y="92" >:</text><text x="546" y="108" >:</text><text x="538" y="124" >:</text><text x="594" y="140" >:</text><text x="538" y="156" >|</text><text x="586" y="156" >:</text><text x="578" y="172" >:</text><text x="674" y="76" >::</text><text x="690" y="92" >:</text><text x="658" y="108" >:</text><text x="698" y="108" >:</text><text x="650" y="124" >:</text><text x="674" y="124" >:</text><text x="682" y="140" >:</text><text x="698" y="156" >:</text><text x="682" y="188" >:</text><text x="786" y="76" >::</text><text x="802" y="92" >:</text><text x="770" y="108" >:</text><text x="810" y="108" >:</text><text x="762" y="124" >:</text><text x="802" y="156" >::</text><line x1="756" y1="192" x2="780" y2="192" class="solid"></line><text x="906" y="92" >:</text><text x="922" y="124" >:</text><text x="906" y="140" >:</text><text x="930" y="140" >:</text><text x="898" y="156" >:</text><text x="890" y="172" >:</text><g><line x1="48" y1="48" x2="72" y2="48" class="solid"></line><line x1="48" y1="48" x2="8" y2="128" class="solid"></line><line x1="72" y1="48" x2="68" y2="56" class="solid"></line><line x1="68" y1="56" x2="68" y2="64" class="solid"></line><line x1="72" y1="48" x2="80" y2="64" class="solid"></line><line x1="80" y1="64" x2="48" y2="128" class="solid"></line><line x1="72" y1="80" x2="88" y2="80" class="solid"></line><line x1="88" y1="80" x2="84" y2="88" class="solid"></line><line x1="84" y1="88" x2="84" y2="96" class="solid"></line><line x1="88" y1="80" x2="96" y2="96" class="solid"></line><line x1="96" y1="96" x2="64" y2="160" class="solid"></line><line x1="88" y1="112" x2="104" y2="112" class="solid"></line><line x1="8" y1="128" x2="32" y2="128" class="solid"></line><line x1="40" y1="112" x2="32" y2="128" class="solid"></line><line x1="104" y1="112" x2="100" y2="120" class="solid"></line><line x1="100" y1="120" x2="100" y2="128" class="solid"></line><line x1="104" y1="112" x2="112" y2="128" class="solid"></line><line x1="8" y1="128" x2="48" y2="208" class="solid"></line><line x1="32" y1="128" x2="72" y2="208" class="solid"></line><line x1="48" y1="128" x2="56" y2="144" class="solid"></line><line x1="52" y1="136" x2="52" y2="144" class="solid"></line><line x1="112" y1="128" x2="72" y2="208" class="solid"></line><line x1="64" y1="160" x2="72" y2="176" class="solid"></line><line x1="68" y1="168" x2="68" y2="176" class="solid"></line><line x1="48" y1="208" x2="72" y2="208" class="solid"></line></g><g><line x1="64" y1="64" x2="60" y2="72" class="solid"></line><line x1="60" y1="72" x2="60" y2="80" class="solid"></line></g><g><line x1="56" y1="80" x2="52" y2="88" class="solid"></line><line x1="52" y1="88" x2="52" y2="96" class="solid"></line></g><g><line x1="48" y1="96" x2="44" y2="104" class="solid"></line><line x1="44" y1="104" x2="44" y2="144" class="broken"></line></g><g><line x1="80" y1="96" x2="76" y2="104" class="solid"></line><line x1="76" y1="104" x2="76" y2="112" class="solid"></line></g><g><line x1="72" y1="112" x2="68" y2="120" class="solid"></line><line x1="68" y1="120" x2="68" y2="128" class="solid"></line></g><g><line x1="64" y1="128" x2="60" y2="136" class="solid"></line><line x1="60" y1="136" x2="60" y2="176" class="broken"></line></g><g><line x1="96" y1="128" x2="92" y2="136" class="solid"></line><line x1="92" y1="136" x2="92" y2="144" class="solid"></line></g><g><line x1="88" y1="144" x2="84" y2="152" class="solid"></line><line x1="84" y1="152" x2="84" y2="160" class="solid"></line></g><g><line x1="80" y1="160" x2="76" y2="168" class="solid"></line><line x1="76" y1="168" x2="76" y2="176" class="solid"></line></g><g><line x1="160" y1="48" x2="184" y2="48" class="solid"></line><line x1="160" y1="48" x2="120" y2="128" class="solid"></line><line x1="184" y1="48" x2="180" y2="56" class="solid"></line><line x1="180" y1="56" x2="180" y2="64" class="solid"></line><line x1="184" y1="48" x2="224" y2="128" class="solid"></line><line x1="188" y1="56" x2="188" y2="64" class="solid"></line><line x1="196" y1="72" x2="196" y2="80" class="solid"></line><line x1="204" y1="88" x2="204" y2="96" class="solid"></line><line x1="212" y1="104" x2="212" y2="144" class="broken"></line><line x1="120" y1="128" x2="144" y2="128" class="solid"></line><line x1="152" y1="112" x2="144" y2="128" class="solid"></line><line x1="120" y1="128" x2="128" y2="144" class="solid"></line><line x1="224" y1="128" x2="184" y2="208" class="solid"></line><line x1="168" y1="112" x2="152" y2="144" class="solid"></line><line x1="168" y1="112" x2="192" y2="160" class="solid"></line><line x1="128" y1="144" x2="152" y2="144" class="solid"></line><line x1="144" y1="128" x2="152" y2="144" class="solid"></line><line x1="160" y1="144" x2="168" y2="160" class="solid"></line><line x1="168" y1="160" x2="192" y2="160" class="solid"></line><line x1="168" y1="160" x2="152" y2="192" class="solid"></line><line x1="192" y1="160" x2="188" y2="168" class="solid"></line><line x1="188" y1="168" x2="188" y2="176" class="solid"></line><line x1="152" y1="192" x2="176" y2="192" class="solid"></line><line x1="184" y1="176" x2="176" y2="192" class="solid"></line><line x1="152" y1="192" x2="160" y2="208" class="solid"></line><line x1="160" y1="208" x2="184" y2="208" class="solid"></line><line x1="176" y1="192" x2="184" y2="208" class="solid"></line></g><g><line x1="176" y1="64" x2="172" y2="72" class="solid"></line><line x1="172" y1="72" x2="172" y2="112" class="broken"></line></g><g><line x1="168" y1="80" x2="164" y2="88" class="solid"></line><line x1="164" y1="88" x2="164" y2="96" class="solid"></line></g><g><line x1="184" y1="80" x2="176" y2="96" class="solid"></line><line x1="184" y1="80" x2="208" y2="128" class="solid"></line><line x1="176" y1="96" x2="200" y2="144" class="solid"></line><line x1="180" y1="104" x2="180" y2="112" class="solid"></line><line x1="188" y1="120" x2="188" y2="128" class="solid"></line><line x1="192" y1="128" x2="208" y2="128" class="solid"></line><line x1="196" y1="136" x2="196" y2="176" class="broken"></line><line x1="208" y1="128" x2="204" y2="136" class="solid"></line><line x1="204" y1="136" x2="204" y2="144" class="solid"></line></g><g><line x1="160" y1="96" x2="156" y2="104" class="solid"></line><line x1="156" y1="104" x2="156" y2="112" class="solid"></line></g><g><line x1="272" y1="48" x2="296" y2="48" class="solid"></line><line x1="272" y1="48" x2="232" y2="128" class="solid"></line><line x1="296" y1="48" x2="292" y2="56" class="solid"></line><line x1="292" y1="56" x2="292" y2="64" class="solid"></line><line x1="296" y1="48" x2="304" y2="64" class="solid"></line><line x1="304" y1="64" x2="272" y2="128" class="solid"></line><line x1="232" y1="128" x2="256" y2="128" class="solid"></line><line x1="264" y1="112" x2="256" y2="128" class="solid"></line><line x1="232" y1="128" x2="272" y2="208" class="solid"></line><line x1="256" y1="128" x2="296" y2="208" class="solid"></line><line x1="272" y1="128" x2="304" y2="192" class="solid"></line><line x1="276" y1="136" x2="276" y2="144" class="solid"></line><line x1="284" y1="152" x2="284" y2="160" class="solid"></line><line x1="292" y1="168" x2="292" y2="176" class="solid"></line><line x1="272" y1="208" x2="296" y2="208" class="solid"></line><line x1="304" y1="192" x2="296" y2="208" class="solid"></line></g><g><line x1="288" y1="64" x2="284" y2="72" class="solid"></line><line x1="284" y1="72" x2="284" y2="80" class="solid"></line></g><g><line x1="280" y1="80" x2="276" y2="88" class="solid"></line><line x1="276" y1="88" x2="276" y2="96" class="solid"></line></g><g><line x1="272" y1="96" x2="268" y2="104" class="solid"></line><line x1="268" y1="104" x2="268" y2="144" class="broken"></line></g><g><line x1="352" y1="48" x2="376" y2="48" class="solid"></line><line x1="352" y1="48" x2="312" y2="128" class="solid"></line><line x1="376" y1="48" x2="372" y2="56" class="solid"></line><line x1="372" y1="56" x2="372" y2="64" class="solid"></line><line x1="376" y1="48" x2="384" y2="64" class="solid"></line><line x1="384" y1="64" x2="352" y2="128" class="solid"></line><line x1="312" y1="128" x2="336" y2="128" class="solid"></line><line x1="344" y1="112" x2="336" y2="128" class="solid"></line><line x1="312" y1="128" x2="352" y2="208" class="solid"></line><line x1="336" y1="128" x2="376" y2="208" class="solid"></line><line x1="352" y1="128" x2="384" y2="192" class="solid"></line><line x1="356" y1="136" x2="356" y2="144" class="solid"></line><line x1="364" y1="152" x2="364" y2="160" class="solid"></line><line x1="372" y1="168" x2="372" y2="176" class="solid"></line><line x1="352" y1="208" x2="376" y2="208" class="solid"></line><line x1="384" y1="192" x2="376" y2="208" class="solid"></line></g><g><line x1="368" y1="64" x2="364" y2="72" class="solid"></line><line x1="364" y1="72" x2="364" y2="80" class="solid"></line></g><g><line x1="360" y1="80" x2="356" y2="88" class="solid"></line><line x1="356" y1="88" x2="356" y2="96" class="solid"></line></g><g><line x1="352" y1="96" x2="348" y2="104" class="solid"></line><line x1="348" y1="104" x2="348" y2="144" class="broken"></line></g><g><line x1="432" y1="48" x2="456" y2="48" class="solid"></line><line x1="432" y1="48" x2="392" y2="128" class="solid"></line><line x1="456" y1="48" x2="452" y2="56" class="solid"></line><line x1="452" y1="56" x2="452" y2="64" class="solid"></line><line x1="456" y1="48" x2="496" y2="128" class="solid"></line><line x1="460" y1="56" x2="460" y2="64" class="solid"></line><line x1="468" y1="72" x2="468" y2="80" class="solid"></line><line x1="476" y1="88" x2="476" y2="96" class="solid"></line><line x1="484" y1="104" x2="484" y2="112" class="solid"></line><line x1="392" y1="128" x2="416" y2="128" class="solid"></line><line x1="424" y1="112" x2="416" y2="128" class="solid"></line><line x1="392" y1="128" x2="432" y2="208" class="solid"></line><line x1="416" y1="128" x2="456" y2="208" class="solid"></line><line x1="432" y1="208" x2="456" y2="208" class="solid"></line><line x1="456" y1="80" x2="448" y2="96" class="solid"></line><line x1="456" y1="80" x2="488" y2="144" class="solid"></line><line x1="448" y1="96" x2="480" y2="160" class="solid"></line><line x1="452" y1="104" x2="452" y2="112" class="solid"></line><line x1="460" y1="120" x2="460" y2="128" class="solid"></line><line x1="468" y1="136" x2="468" y2="144" class="solid"></line><line x1="472" y1="144" x2="488" y2="144" class="solid"></line><line x1="496" y1="128" x2="488" y2="144" class="solid"></line><line x1="440" y1="112" x2="432" y2="128" class="solid"></line><line x1="440" y1="112" x2="472" y2="176" class="solid"></line><line x1="432" y1="128" x2="464" y2="192" class="solid"></line><line x1="436" y1="136" x2="436" y2="144" class="solid"></line><line x1="444" y1="152" x2="444" y2="160" class="solid"></line><line x1="452" y1="168" x2="452" y2="176" class="solid"></line><line x1="456" y1="176" x2="472" y2="176" class="solid"></line><line x1="480" y1="160" x2="472" y2="176" class="solid"></line><line x1="464" y1="192" x2="456" y2="208" class="solid"></line></g><g><line x1="448" y1="64" x2="444" y2="72" class="solid"></line><line x1="444" y1="72" x2="444" y2="112" class="broken"></line></g><g><line x1="440" y1="80" x2="436" y2="88" class="solid"></line><line x1="436" y1="88" x2="436" y2="96" class="solid"></line></g><g><line x1="432" y1="96" x2="428" y2="104" class="solid"></line><line x1="428" y1="104" x2="428" y2="144" class="broken"></line></g><g><line x1="544" y1="48" x2="568" y2="48" class="solid"></line><line x1="544" y1="48" x2="504" y2="128" class="solid"></line><line x1="568" y1="48" x2="564" y2="56" class="solid"></line><line x1="564" y1="56" x2="564" y2="88" class="broken"></line><line x1="568" y1="48" x2="576" y2="64" class="solid"></line><line x1="572" y1="56" x2="572" y2="192" class="broken"></line><line x1="564" y1="88" x2="540" y2="136" class="solid"></line><line x1="504" y1="128" x2="528" y2="128" class="solid"></line><line x1="536" y1="112" x2="528" y2="128" class="solid"></line><line x1="504" y1="128" x2="512" y2="144" class="solid"></line><line x1="512" y1="144" x2="536" y2="144" class="solid"></line><line x1="528" y1="128" x2="536" y2="144" class="solid"></line><line x1="540" y1="136" x2="540" y2="144" class="solid"></line></g><g><line x1="560" y1="64" x2="556" y2="72" class="solid"></line><line x1="556" y1="72" x2="556" y2="80" class="solid"></line></g><g><line x1="552" y1="80" x2="548" y2="88" class="solid"></line><line x1="548" y1="88" x2="548" y2="96" class="solid"></line></g><g><line x1="580" y1="80" x2="580" y2="144" class="solid"></line><line x1="580" y1="112" x2="600" y2="112" class="solid"></line><line x1="600" y1="112" x2="596" y2="120" class="solid"></line><line x1="596" y1="120" x2="596" y2="128" class="solid"></line><line x1="600" y1="112" x2="608" y2="128" class="solid"></line><line x1="608" y1="128" x2="568" y2="208" class="solid"></line><line x1="564" y1="96" x2="564" y2="176" class="solid"></line><line x1="540" y1="160" x2="540" y2="176" class="solid"></line><line x1="540" y1="176" x2="564" y2="176" class="solid"></line><line x1="544" y1="176" x2="536" y2="192" class="solid"></line><line x1="536" y1="192" x2="560" y2="192" class="solid"></line><line x1="568" y1="176" x2="560" y2="192" class="solid"></line><line x1="536" y1="192" x2="544" y2="208" class="solid"></line><line x1="544" y1="208" x2="568" y2="208" class="solid"></line><line x1="560" y1="192" x2="568" y2="208" class="solid"></line></g><g><line x1="544" y1="96" x2="540" y2="104" class="solid"></line><line x1="540" y1="104" x2="540" y2="112" class="solid"></line></g><g><line x1="592" y1="128" x2="588" y2="136" class="solid"></line><line x1="588" y1="136" x2="588" y2="144" class="solid"></line></g><g><line x1="584" y1="144" x2="580" y2="152" class="solid"></line><line x1="580" y1="152" x2="580" y2="160" class="solid"></line></g><g><line x1="656" y1="48" x2="680" y2="48" class="solid"></line><line x1="656" y1="48" x2="616" y2="128" class="solid"></line><line x1="680" y1="48" x2="676" y2="56" class="solid"></line><line x1="676" y1="56" x2="676" y2="64" class="solid"></line><line x1="680" y1="48" x2="720" y2="128" class="solid"></line><line x1="684" y1="56" x2="684" y2="64" class="solid"></line><line x1="692" y1="72" x2="692" y2="80" class="solid"></line><line x1="700" y1="88" x2="700" y2="96" class="solid"></line><line x1="708" y1="104" x2="708" y2="144" class="broken"></line><line x1="616" y1="128" x2="640" y2="128" class="solid"></line><line x1="648" y1="112" x2="640" y2="128" class="solid"></line><line x1="616" y1="128" x2="624" y2="144" class="solid"></line><line x1="720" y1="128" x2="680" y2="208" class="solid"></line><line x1="664" y1="112" x2="648" y2="144" class="solid"></line><line x1="664" y1="112" x2="688" y2="160" class="solid"></line><line x1="624" y1="144" x2="648" y2="144" class="solid"></line><line x1="640" y1="128" x2="648" y2="144" class="solid"></line><line x1="656" y1="144" x2="664" y2="160" class="solid"></line><line x1="664" y1="160" x2="688" y2="160" class="solid"></line><line x1="664" y1="160" x2="648" y2="192" class="solid"></line><line x1="688" y1="160" x2="684" y2="168" class="solid"></line><line x1="684" y1="168" x2="684" y2="176" class="solid"></line><line x1="648" y1="192" x2="672" y2="192" class="solid"></line><line x1="680" y1="176" x2="672" y2="192" class="solid"></line><line x1="648" y1="192" x2="656" y2="208" class="solid"></line><line x1="656" y1="208" x2="680" y2="208" class="solid"></line><line x1="672" y1="192" x2="680" y2="208" class="solid"></line></g><g><line x1="672" y1="64" x2="668" y2="72" class="solid"></line><line x1="668" y1="72" x2="668" y2="112" class="broken"></line></g><g><line x1="664" y1="80" x2="660" y2="88" class="solid"></line><line x1="660" y1="88" x2="660" y2="96" class="solid"></line></g><g><line x1="680" y1="80" x2="672" y2="96" class="solid"></line><line x1="680" y1="80" x2="704" y2="128" class="solid"></line><line x1="672" y1="96" x2="696" y2="144" class="solid"></line><line x1="676" y1="104" x2="676" y2="112" class="solid"></line><line x1="684" y1="120" x2="684" y2="128" class="solid"></line><line x1="688" y1="128" x2="704" y2="128" class="solid"></line><line x1="692" y1="136" x2="692" y2="176" class="broken"></line><line x1="704" y1="128" x2="700" y2="136" class="solid"></line><line x1="700" y1="136" x2="700" y2="144" class="solid"></line></g><g><line x1="656" y1="96" x2="652" y2="104" class="solid"></line><line x1="652" y1="104" x2="652" y2="112" class="solid"></line></g><g><line x1="768" y1="48" x2="792" y2="48" class="solid"></line><line x1="768" y1="48" x2="728" y2="128" class="solid"></line><line x1="792" y1="48" x2="788" y2="56" class="solid"></line><line x1="788" y1="56" x2="788" y2="64" class="solid"></line><line x1="792" y1="48" x2="832" y2="128" class="solid"></line><line x1="796" y1="56" x2="796" y2="64" class="solid"></line><line x1="804" y1="72" x2="804" y2="80" class="solid"></line><line x1="812" y1="88" x2="812" y2="96" class="solid"></line><line x1="820" y1="104" x2="820" y2="144" class="broken"></line><line x1="728" y1="128" x2="752" y2="128" class="solid"></line><line x1="760" y1="112" x2="752" y2="128" class="solid"></line><line x1="728" y1="128" x2="736" y2="144" class="solid"></line><line x1="752" y1="128" x2="756" y2="136" class="solid"></line><line x1="832" y1="128" x2="808" y2="176" class="solid"></line><line x1="792" y1="80" x2="784" y2="96" class="solid"></line><line x1="792" y1="80" x2="816" y2="128" class="solid"></line><line x1="784" y1="96" x2="808" y2="144" class="solid"></line><line x1="788" y1="104" x2="788" y2="192" class="broken"></line><line x1="796" y1="120" x2="796" y2="152" class="broken"></line><line x1="800" y1="128" x2="816" y2="128" class="solid"></line><line x1="804" y1="136" x2="804" y2="144" class="solid"></line><line x1="816" y1="128" x2="812" y2="136" class="solid"></line><line x1="812" y1="136" x2="812" y2="144" class="solid"></line><line x1="796" y1="152" x2="808" y2="176" class="solid"></line><line x1="776" y1="112" x2="760" y2="144" class="solid"></line><line x1="776" y1="112" x2="780" y2="120" class="solid"></line><line x1="780" y1="120" x2="780" y2="184" class="solid"></line><line x1="736" y1="144" x2="760" y2="144" class="solid"></line><line x1="756" y1="136" x2="756" y2="144" class="solid"></line><line x1="764" y1="136" x2="780" y2="136" class="broken"></line><line x1="780" y1="184" x2="792" y2="208" class="solid"></line><line x1="756" y1="160" x2="756" y2="184" class="solid"></line><line x1="756" y1="184" x2="768" y2="208" class="solid"></line><line x1="768" y1="208" x2="792" y2="208" class="solid"></line></g><g><line x1="784" y1="64" x2="780" y2="72" class="solid"></line><line x1="780" y1="72" x2="780" y2="112" class="broken"></line></g><g><line x1="776" y1="80" x2="772" y2="88" class="solid"></line><line x1="772" y1="88" x2="772" y2="96" class="solid"></line></g><g><line x1="768" y1="96" x2="764" y2="104" class="solid"></line><line x1="764" y1="104" x2="764" y2="112" class="solid"></line></g><g><line x1="796" y1="160" x2="796" y2="208" class="solid"></line><line x1="796" y1="184" x2="808" y2="184" class="broken"></line></g><g><line x1="880" y1="64" x2="904" y2="64" class="solid"></line><line x1="880" y1="64" x2="872" y2="80" class="solid"></line><line x1="872" y1="80" x2="896" y2="80" class="solid"></line><line x1="904" y1="64" x2="896" y2="80" class="solid"></line><line x1="904" y1="64" x2="944" y2="144" class="solid"></line><line x1="908" y1="72" x2="908" y2="80" class="solid"></line><line x1="872" y1="80" x2="888" y2="112" class="solid"></line><line x1="896" y1="80" x2="912" y2="112" class="solid"></line><line x1="916" y1="88" x2="916" y2="128" class="broken"></line><line x1="888" y1="112" x2="912" y2="112" class="solid"></line><line x1="924" y1="104" x2="924" y2="112" class="solid"></line><line x1="888" y1="112" x2="856" y2="176" class="solid"></line><line x1="912" y1="112" x2="908" y2="120" class="solid"></line><line x1="908" y1="120" x2="908" y2="128" class="solid"></line><line x1="932" y1="120" x2="932" y2="128" class="solid"></line><line x1="856" y1="176" x2="880" y2="176" class="solid"></line><line x1="888" y1="160" x2="880" y2="176" class="solid"></line><line x1="856" y1="176" x2="864" y2="192" class="solid"></line><line x1="920" y1="128" x2="888" y2="192" class="solid"></line><line x1="920" y1="128" x2="936" y2="160" class="solid"></line><line x1="904" y1="160" x2="936" y2="160" class="solid"></line><line x1="944" y1="144" x2="936" y2="160" class="solid"></line><line x1="864" y1="192" x2="888" y2="192" class="solid"></line><line x1="880" y1="176" x2="888" y2="192" class="solid"></line></g><g><line x1="904" y1="128" x2="900" y2="136" class="solid"></line><line x1="900" y1="136" x2="900" y2="144" class="solid"></line></g><g><line x1="896" y1="144" x2="892" y2="152" class="solid"></line><line x1="892" y1="152" x2="892" y2="160" class="solid"></line></g></svg>
