<svg width="10" height="10" viewBox="0 0 10 10" fill="none" xmlns="http://www.w3.org/2000/svg">
<path d="M0.128 0.16L3.664 0.24L3.888 0.48V1.104L3.696 1.296H3.424C3.392 1.296 3.36 1.312 3.328 1.328C3.328 1.36 3.312 1.392 3.312 1.424L3.28 4.096V4.112C3.296 4.128 3.296 4.144 3.296 4.16C3.312 4.176 3.328 4.208 3.328 4.208C3.36 4.224 3.376 4.24 3.408 4.24C3.424 4.224 3.456 4.208 3.488 4.176L6.256 1.488C6.256 1.472 6.256 1.472 6.256 1.472C6.272 1.472 6.288 1.44 6.288 1.424C6.288 1.392 6.288 1.376 6.288 1.36C6.288 1.344 6.288 1.328 6.256 1.328C6.256 1.312 6.224 1.296 6.176 1.296H5.936L5.776 1.088V0.448L5.968 0.191999L9.424 0.24L9.6 0.4V1.136L1.712 9.136H0.832L0.576 8.864L0.56 1.392C0.56 1.36 0.544 1.344 0.512 1.328C0.512 1.296 0.48 1.296 0.448 1.296L0.16 1.264L0 1.104V0.335999L0.128 0.16Z" fill="white"/>
</svg>
