<svg width="10" height="12" viewBox="0 0 10 12" fill="none" xmlns="http://www.w3.org/2000/svg">
<path d="M4.8 0.216C4.944 0.216 5.088 0.264 5.216 0.344L9.168 2.632C9.296 2.696 9.408 2.808 9.472 2.936C9.552 3.08 9.6 3.208 9.6 3.336V7.944C9.6 8.072 9.552 8.216 9.488 8.344C9.408 8.472 9.312 8.584 9.168 8.664L5.216 10.952C5.088 11.032 4.944 11.08 4.8 11.08C4.656 11.08 4.512 11.032 4.368 10.952L3.04 10.184C2.896 10.088 2.896 10.04 3.008 9.992C3.184 9.944 3.376 9.848 3.584 9.72H3.616C3.632 9.704 3.664 9.704 3.712 9.72L4.72 10.344C4.768 10.36 4.816 10.36 4.848 10.344L8.816 8.04C8.848 8.008 8.864 7.976 8.864 7.944V3.336C8.864 3.304 8.848 3.272 8.816 3.256L4.848 0.952C4.816 0.936 4.768 0.936 4.736 0.952L0.768 3.256C0.736 3.272 0.72 3.304 0.72 3.336V7.944C0.72 7.976 0.736 8.008 0.768 8.04C1.504 8.456 1.856 8.664 1.856 8.664C2.128 8.808 2.352 8.824 2.528 8.712C2.704 8.616 2.8 8.472 2.8 8.264V3.752C2.8 3.672 2.832 3.624 2.928 3.624H3.424C3.456 3.624 3.472 3.64 3.504 3.656C3.52 3.688 3.536 3.72 3.536 3.752V8.264C3.536 8.648 3.44 8.952 3.232 9.176C3.024 9.384 2.736 9.496 2.368 9.496C2.224 9.496 2.096 9.496 2.016 9.48C1.856 9.448 1.664 9.368 1.44 9.24L0.416 8.664C0.288 8.584 0.192 8.488 0.112 8.36C0.032 8.216 0 8.088 0 7.944V3.336C0 3.208 0.032 3.08 0.096 2.952C0.176 2.824 0.272 2.712 0.416 2.632L4.368 0.344C4.496 0.264 4.64 0.216 4.8 0.216ZM5.872 3.528C6.496 3.528 6.976 3.64 7.296 3.848C7.6 4.072 7.792 4.424 7.84 4.888C7.84 4.92 7.824 4.952 7.808 4.984C7.792 5 7.76 5.016 7.728 5.016H7.216C7.152 5.016 7.12 4.984 7.104 4.92C7.024 4.648 6.912 4.472 6.736 4.36C6.56 4.248 6.272 4.2 5.856 4.2C5.456 4.184 5.184 4.264 5.024 4.392C4.896 4.472 4.848 4.6 4.848 4.776C4.848 4.872 4.88 4.952 4.928 5C4.992 5.064 5.12 5.112 5.296 5.16C5.472 5.208 5.776 5.256 6.192 5.304C6.848 5.384 7.296 5.496 7.552 5.672C7.84 5.848 8 6.152 8 6.568C8 6.984 7.824 7.32 7.488 7.544C7.136 7.784 6.656 7.896 6.016 7.896C5.232 7.896 4.672 7.736 4.32 7.432C4.048 7.192 3.92 6.872 3.92 6.456C3.92 6.376 3.936 6.328 4.016 6.328H4.544C4.608 6.328 4.64 6.36 4.672 6.424C4.704 6.696 4.8 6.904 4.976 7.016C5.168 7.16 5.52 7.224 6.016 7.224C6.432 7.224 6.736 7.176 6.928 7.064C7.12 6.968 7.216 6.792 7.216 6.568C7.216 6.424 7.152 6.312 6.992 6.248C6.784 6.152 6.4 6.072 5.808 6.008C5.216 5.96 4.784 5.848 4.528 5.672C4.192 5.48 4.032 5.192 4.032 4.792C4.032 4.392 4.208 4.088 4.528 3.864C4.864 3.64 5.312 3.528 5.872 3.528Z" fill="white"/>
</svg>
