<svg width="11" height="11" viewBox="0 0 11 11" fill="none" xmlns="http://www.w3.org/2000/svg">
<path d="M10.552 6.712C10.6 6.76 10.6 6.824 10.568 6.904C10.536 7 10.488 7.048 10.44 7.096C10.2 7.336 9.912 7.496 9.56 7.576C9.208 7.64 8.872 7.656 8.552 7.592C8.52 7.896 8.488 8.184 8.44 8.472C8.408 8.776 8.376 9.064 8.328 9.352C8.312 9.528 8.264 9.688 8.2 9.848C8.136 9.992 8.04 10.136 7.896 10.248C7.784 10.344 7.656 10.424 7.512 10.488C7.368 10.536 7.208 10.568 7.048 10.6C6.888 10.632 6.728 10.632 6.568 10.6C6.408 10.568 6.264 10.504 6.136 10.408C6.008 10.296 5.912 10.152 5.832 9.992C5.752 9.832 5.704 9.656 5.688 9.48C5.672 9.192 5.64 8.888 5.64 8.6C5.624 8.296 5.624 8.008 5.624 7.704C5.496 7.832 5.336 7.928 5.16 7.976C4.968 8.04 4.792 8.056 4.6 8.056C4.472 8.04 4.328 8.024 4.2 7.992C4.056 7.96 3.944 7.912 3.848 7.816C3.8 7.752 3.768 7.688 3.768 7.608C3.768 7.528 3.8 7.464 3.864 7.416C3.976 7.336 4.088 7.288 4.216 7.288C4.344 7.272 4.472 7.24 4.6 7.192C4.68 7.16 4.76 7.112 4.808 7.032C4.856 6.968 4.92 6.888 4.968 6.824C4.872 6.824 4.776 6.808 4.68 6.792C4.568 6.76 4.472 6.728 4.376 6.68C4.248 6.824 4.104 6.968 3.976 7.128C3.832 7.288 3.704 7.432 3.576 7.592C3.496 7.688 3.4 7.768 3.288 7.832C3.176 7.896 3.064 7.912 2.936 7.912C2.792 7.896 2.664 7.832 2.568 7.736C2.456 7.64 2.36 7.544 2.28 7.432C2.136 7.208 2.008 6.984 1.896 6.728C1.8 6.472 1.704 6.232 1.608 5.976C1.464 5.56 1.352 5.144 1.256 4.728C1.16 4.312 1.08 3.88 1.016 3.448C0.984 3.128 0.984 2.792 1.032 2.472C1.064 2.136 1.176 1.832 1.368 1.56C1.528 1.352 1.72 1.176 1.96 1.048C2.2 0.919999 2.456 0.839999 2.712 0.823999C3.048 0.808 3.4 0.808 3.752 0.872C4.104 0.919999 4.44 1.016 4.76 1.128C5.032 0.952 5.336 0.839999 5.672 0.808C5.992 0.759999 6.312 0.775999 6.632 0.839999C6.648 0.839999 6.68 0.839999 6.712 0.856C6.728 0.872 6.76 0.872 6.776 0.856C7.128 0.759999 7.48 0.695999 7.848 0.679999C8.232 0.664 8.584 0.695999 8.936 0.808C9.208 0.872 9.464 0.983999 9.72 1.144C9.96 1.32 10.168 1.512 10.36 1.736C10.424 1.832 10.472 1.944 10.488 2.056C10.52 2.168 10.536 2.296 10.536 2.408C10.552 2.616 10.536 2.824 10.504 3.032C10.472 3.24 10.424 3.448 10.376 3.64C10.264 4.168 10.088 4.696 9.864 5.192C9.624 5.688 9.368 6.168 9.08 6.632C9.24 6.696 9.416 6.728 9.592 6.712C9.768 6.696 9.944 6.68 10.12 6.648C10.184 6.632 10.248 6.616 10.344 6.616C10.424 6.616 10.488 6.648 10.552 6.712ZM9.08 1.16C8.808 1.048 8.504 0.983999 8.2 0.967999C7.88 0.952 7.592 0.967999 7.288 1.048C7.352 1.096 7.432 1.128 7.512 1.176C7.576 1.208 7.656 1.256 7.72 1.304C7.992 1.48 8.232 1.704 8.456 1.976C8.664 2.232 8.84 2.504 8.984 2.808C9.016 2.904 9.048 3 9.08 3.08C9.112 3.176 9.112 3.272 9.112 3.384C9.112 3.576 9.096 3.768 9.064 3.976C9.016 4.168 9 4.376 9.032 4.568C9.048 4.792 9.064 5 9.08 5.208C9.112 5.432 9.096 5.64 9.032 5.848C9.032 5.912 9.016 5.992 8.984 6.056C8.936 6.12 8.92 6.184 8.888 6.264V6.312C8.888 6.328 8.904 6.344 8.904 6.36C8.92 6.312 8.952 6.28 8.968 6.248C8.984 6.216 9 6.184 9.032 6.136C9.256 5.768 9.448 5.384 9.608 5C9.784 4.6 9.928 4.216 10.04 3.8C10.104 3.592 10.152 3.368 10.184 3.144C10.216 2.904 10.232 2.68 10.232 2.456C10.232 2.36 10.232 2.248 10.216 2.168C10.2 2.072 10.168 1.976 10.104 1.896C9.96 1.72 9.816 1.576 9.64 1.448C9.464 1.336 9.272 1.224 9.08 1.16ZM8.728 4.568C8.712 4.376 8.712 4.184 8.744 4.008C8.792 3.816 8.808 3.624 8.824 3.432C8.68 3.432 8.536 3.416 8.392 3.416C8.248 3.416 8.104 3.464 7.992 3.544C7.896 3.624 7.848 3.72 7.848 3.832C7.832 3.96 7.848 4.072 7.864 4.168C7.928 4.504 8.04 4.808 8.2 5.112C8.36 5.416 8.52 5.704 8.68 5.992C8.792 5.768 8.84 5.528 8.808 5.288C8.776 5.032 8.744 4.792 8.728 4.568ZM3.368 7.368C3.496 7.224 3.624 7.08 3.752 6.936C3.88 6.792 4.008 6.648 4.136 6.504C3.944 6.328 3.8 6.12 3.72 5.88C3.624 5.64 3.608 5.4 3.64 5.144C3.672 4.968 3.688 4.776 3.688 4.584C3.688 4.392 3.688 4.2 3.688 4.008C3.656 3.736 3.672 3.464 3.704 3.192C3.736 2.92 3.8 2.648 3.88 2.392C3.944 2.184 4.024 2.008 4.12 1.832C4.232 1.672 4.344 1.496 4.488 1.352C4.184 1.256 3.848 1.192 3.528 1.128C3.192 1.08 2.872 1.096 2.552 1.16C2.344 1.192 2.168 1.272 1.992 1.384C1.816 1.496 1.672 1.64 1.56 1.816C1.432 2.056 1.352 2.312 1.32 2.6C1.288 2.872 1.288 3.144 1.32 3.416C1.352 3.768 1.416 4.12 1.496 4.472C1.592 4.824 1.672 5.16 1.768 5.512C1.864 5.8 1.96 6.088 2.072 6.376C2.168 6.664 2.312 6.936 2.472 7.192C2.52 7.256 2.584 7.352 2.664 7.432C2.744 7.528 2.824 7.592 2.952 7.608C3.032 7.624 3.112 7.608 3.176 7.56C3.256 7.496 3.32 7.432 3.368 7.368ZM3.944 5.592C3.976 5.848 4.104 6.072 4.312 6.248C4.504 6.44 4.728 6.536 5 6.536C5.032 6.408 5.08 6.28 5.128 6.152C5.176 6.024 5.224 5.912 5.288 5.784C5.432 5.48 5.512 5.16 5.512 4.808C5.512 4.44 5.464 4.104 5.384 3.784C5.352 3.704 5.304 3.624 5.224 3.576C5.144 3.512 5.064 3.48 4.968 3.464C4.792 3.448 4.616 3.48 4.44 3.544C4.28 3.608 4.12 3.688 3.96 3.784C3.96 3.944 3.96 4.104 3.976 4.264C3.976 4.424 3.976 4.584 3.96 4.744C3.96 4.888 3.96 5.016 3.928 5.16C3.912 5.304 3.912 5.448 3.944 5.592ZM5.56 7.336C5.656 7.272 5.672 7.176 5.608 7.048C5.544 6.92 5.464 6.872 5.352 6.888C5.256 6.952 5.16 7.048 5.112 7.144C5.048 7.256 4.952 7.336 4.84 7.384C4.728 7.464 4.616 7.512 4.488 7.528C4.36 7.528 4.232 7.576 4.104 7.624C4.344 7.752 4.6 7.8 4.888 7.752C5.176 7.688 5.4 7.56 5.56 7.336ZM8.376 6.824C8.424 6.76 8.472 6.712 8.536 6.664C8.6 6.632 8.664 6.6 8.728 6.584C8.664 6.504 8.616 6.44 8.568 6.36C8.52 6.296 8.472 6.232 8.424 6.152C8.264 5.832 8.104 5.512 7.928 5.208C7.752 4.888 7.624 4.552 7.56 4.2C7.528 4.056 7.528 3.896 7.56 3.736C7.592 3.576 7.672 3.432 7.784 3.336C7.928 3.224 8.072 3.16 8.248 3.144C8.44 3.128 8.616 3.128 8.776 3.144C8.68 2.84 8.536 2.568 8.344 2.312C8.168 2.072 7.96 1.848 7.736 1.672C7.432 1.432 7.096 1.272 6.744 1.176C6.376 1.08 6.024 1.048 5.656 1.096C5.432 1.128 5.224 1.192 5.032 1.304C4.84 1.416 4.68 1.576 4.536 1.752C4.36 1.992 4.232 2.248 4.136 2.536C4.056 2.84 3.992 3.128 3.96 3.416C4.152 3.336 4.344 3.272 4.552 3.208C4.76 3.144 4.952 3.144 5.16 3.192C5.288 3.224 5.4 3.304 5.48 3.4C5.576 3.512 5.64 3.624 5.672 3.768C5.736 4.024 5.768 4.296 5.784 4.568C5.816 4.824 5.784 5.096 5.736 5.368C5.688 5.576 5.608 5.768 5.512 5.976C5.416 6.168 5.352 6.376 5.304 6.6C5.368 6.6 5.416 6.6 5.48 6.6C5.528 6.616 5.576 6.632 5.624 6.664C5.72 6.712 5.8 6.792 5.864 6.904C5.912 7 5.944 7.112 5.928 7.224C5.928 7.528 5.928 7.816 5.928 8.104C5.928 8.408 5.944 8.696 5.944 8.984C5.96 9.096 5.96 9.208 5.976 9.336C5.992 9.448 6.008 9.576 6.04 9.688C6.072 9.832 6.136 9.976 6.248 10.088C6.344 10.216 6.472 10.296 6.632 10.312C6.792 10.344 6.952 10.328 7.112 10.296C7.272 10.264 7.432 10.216 7.576 10.136C7.72 10.056 7.816 9.944 7.88 9.816C7.96 9.672 8.008 9.528 8.024 9.368C8.072 9.064 8.12 8.744 8.152 8.424C8.2 8.104 8.232 7.8 8.264 7.48C8.296 7.368 8.296 7.256 8.296 7.144C8.296 7.032 8.328 6.92 8.376 6.824ZM9.24 7.32C9.432 7.304 9.592 7.272 9.752 7.208C9.912 7.144 10.056 7.048 10.184 6.936C9.976 6.968 9.768 6.984 9.56 7C9.352 7.016 9.144 6.984 8.952 6.872C8.92 6.856 8.872 6.84 8.808 6.856C8.76 6.888 8.712 6.904 8.664 6.936C8.616 6.984 8.6 7.032 8.584 7.096C8.584 7.176 8.584 7.24 8.584 7.304C8.68 7.336 8.792 7.352 8.904 7.336C9.016 7.336 9.128 7.336 9.24 7.32ZM8.088 3.64C8.152 3.592 8.232 3.56 8.312 3.56C8.392 3.544 8.472 3.56 8.552 3.608C8.536 3.704 8.504 3.768 8.408 3.832C8.328 3.88 8.248 3.88 8.152 3.816C8.12 3.8 8.088 3.784 8.056 3.752C8.024 3.704 8.04 3.672 8.088 3.64ZM5.16 3.928C5.08 3.992 4.984 3.992 4.888 3.96C4.792 3.928 4.728 3.848 4.712 3.768C4.712 3.736 4.728 3.72 4.744 3.688C4.76 3.672 4.776 3.656 4.808 3.64C4.872 3.624 4.952 3.624 5.032 3.64C5.096 3.64 5.176 3.672 5.224 3.72C5.256 3.752 5.272 3.784 5.24 3.832C5.224 3.88 5.192 3.912 5.16 3.928Z" fill="white"/>
</svg>
