<svg width="10" height="9" viewBox="0 0 10 9" fill="none" xmlns="http://www.w3.org/2000/svg">
<path d="M5.68 4.64C5.68 4.384 5.584 4.192 5.408 4.016C5.232 3.84 5.024 3.76 4.784 3.76C4.544 3.76 4.336 3.84 4.176 4.016C4 4.192 3.904 4.4 3.904 4.64C3.904 4.88 4 5.088 4.176 5.264C4.336 5.44 4.544 5.52 4.784 5.52C5.024 5.52 5.248 5.44 5.408 5.264C5.584 5.088 5.68 4.88 5.68 4.64ZM4.784 7.872C4.432 8.192 4.096 8.464 3.776 8.64C3.44 8.832 3.136 8.928 2.864 8.912C2.784 8.912 2.704 8.896 2.608 8.88C2.528 8.848 2.464 8.832 2.384 8.784C2.144 8.64 1.984 8.4 1.888 8.048C1.808 7.696 1.808 7.28 1.888 6.784C1.904 6.688 1.92 6.608 1.936 6.512C1.952 6.432 1.968 6.336 2 6.24C1.904 6.208 1.808 6.192 1.728 6.16C1.648 6.128 1.552 6.112 1.472 6.08C0.992 5.888 0.624 5.664 0.368 5.424C0.112 5.184 0 4.928 0 4.64C0 4.352 0.112 4.08 0.368 3.84C0.624 3.584 0.992 3.376 1.472 3.2C1.552 3.168 1.648 3.152 1.728 3.12C1.808 3.088 1.904 3.072 2 3.04C1.968 2.944 1.952 2.848 1.936 2.752C1.92 2.672 1.904 2.576 1.888 2.48C1.808 1.968 1.808 1.552 1.888 1.216C1.984 0.863999 2.144 0.624 2.384 0.48C2.464 0.448 2.528 0.4 2.608 0.384C2.704 0.367999 2.784 0.351999 2.864 0.351999C3.136 0.351999 3.44 0.448 3.776 0.639999C4.096 0.832 4.432 1.088 4.784 1.424C5.12 1.088 5.456 0.832 5.792 0.639999C6.128 0.448 6.432 0.351999 6.688 0.351999C6.784 0.351999 6.864 0.367999 6.944 0.384C7.024 0.4 7.104 0.448 7.184 0.48C7.44 0.624 7.6 0.879999 7.68 1.216C7.76 1.568 7.776 2 7.696 2.512C7.68 2.608 7.664 2.688 7.648 2.784C7.632 2.864 7.616 2.96 7.584 3.056C7.664 3.088 7.76 3.104 7.856 3.136C7.936 3.168 8.032 3.184 8.112 3.216C8.592 3.408 8.96 3.632 9.216 3.872C9.472 4.112 9.6 4.368 9.6 4.656C9.6 4.944 9.472 5.216 9.216 5.456C8.96 5.712 8.592 5.92 8.112 6.096C8.032 6.128 7.936 6.144 7.856 6.176C7.776 6.208 7.68 6.224 7.584 6.256C7.616 6.352 7.632 6.448 7.648 6.544C7.664 6.624 7.68 6.72 7.696 6.816C7.776 7.328 7.776 7.744 7.68 8.08C7.6 8.432 7.424 8.672 7.184 8.816C7.12 8.848 7.056 8.896 6.96 8.912C6.88 8.928 6.784 8.944 6.704 8.944C6.432 8.944 6.128 8.848 5.808 8.656C5.472 8.464 5.136 8.208 4.784 7.872ZM4.256 6.608C4.352 6.704 4.432 6.816 4.528 6.912L4.784 7.232C4.88 7.136 4.96 7.04 5.056 6.928C5.136 6.832 5.232 6.72 5.328 6.608H5.056H4.784C4.704 6.608 4.624 6.608 4.528 6.608C4.432 6.608 4.352 6.608 4.256 6.608ZM3.088 5.632C3.04 5.552 2.992 5.472 2.96 5.392C2.912 5.312 2.864 5.232 2.832 5.152C2.784 5.296 2.72 5.424 2.672 5.552C2.64 5.696 2.592 5.824 2.544 5.952C2.672 5.984 2.8 6 2.944 6.032C3.088 6.048 3.216 6.08 3.376 6.096C3.312 6.016 3.264 5.936 3.232 5.872C3.2 5.792 3.152 5.712 3.088 5.632ZM2.544 3.344C2.592 3.472 2.624 3.6 2.672 3.744C2.72 3.872 2.768 4.016 2.832 4.144C2.864 4.064 2.912 3.984 2.96 3.904C2.992 3.824 3.04 3.744 3.088 3.664C3.152 3.584 3.2 3.504 3.232 3.44C3.28 3.36 3.328 3.28 3.376 3.2C3.232 3.216 3.088 3.248 2.96 3.264C2.816 3.296 2.688 3.312 2.544 3.344ZM3.072 4.64C3.136 4.768 3.2 4.896 3.248 5.024C3.312 5.152 3.392 5.28 3.472 5.408C3.552 5.536 3.616 5.648 3.696 5.776C3.76 5.888 3.84 6 3.936 6.128C4.08 6.144 4.208 6.16 4.352 6.16C4.496 6.16 4.624 6.16 4.784 6.16C4.944 6.16 5.088 6.16 5.232 6.16C5.36 6.16 5.504 6.144 5.648 6.128C5.728 6.016 5.808 5.888 5.888 5.776C5.968 5.648 6.032 5.536 6.112 5.408C6.192 5.28 6.256 5.152 6.32 5.024C6.384 4.896 6.448 4.768 6.512 4.64C6.416 4.448 6.416 4.448 6.336 4.272C6.272 4.144 6.192 4.016 6.112 3.872C6.032 3.76 5.968 3.632 5.888 3.52C5.824 3.392 5.744 3.28 5.648 3.152C5.504 3.136 5.36 3.12 5.232 3.12C5.088 3.12 4.944 3.12 4.784 3.12C4.64 3.12 4.496 3.12 4.352 3.12C4.224 3.12 4.08 3.136 3.936 3.152C3.856 3.264 3.776 3.392 3.696 3.504C3.616 3.632 3.552 3.76 3.472 3.872C3.392 4.016 3.312 4.144 3.248 4.256C3.2 4.384 3.136 4.512 3.072 4.64ZM6.752 4.144C6.8 4 6.864 3.872 6.912 3.744C6.96 3.6 7.008 3.472 7.04 3.344C6.912 3.312 6.784 3.28 6.64 3.264C6.496 3.232 6.368 3.216 6.208 3.2C6.272 3.28 6.32 3.36 6.352 3.424C6.4 3.504 6.448 3.584 6.496 3.664L6.752 4.144ZM6.752 5.152C6.704 5.232 6.656 5.312 6.624 5.392C6.576 5.472 6.544 5.552 6.496 5.616L6.352 5.856C6.288 5.968 6.288 5.968 6.208 6.08C6.368 6.064 6.496 6.032 6.64 6.016C6.784 5.984 6.912 5.968 7.04 5.936C7.008 5.808 6.96 5.68 6.912 5.552C6.864 5.408 6.8 5.28 6.752 5.152ZM6.976 8.432C7.136 8.336 7.232 8.16 7.28 7.888C7.344 7.6 7.328 7.264 7.264 6.864L7.216 6.608C7.2 6.528 7.168 6.448 7.152 6.352C6.96 6.416 6.752 6.448 6.544 6.48C6.336 6.512 6.112 6.544 5.888 6.56C5.76 6.752 5.632 6.912 5.504 7.088C5.376 7.248 5.232 7.408 5.104 7.552C5.376 7.84 5.664 8.064 5.936 8.24C6.208 8.4 6.464 8.496 6.688 8.496C6.752 8.496 6.8 8.48 6.848 8.48C6.896 8.464 6.928 8.464 6.976 8.432ZM7.456 3.456C7.408 3.648 7.328 3.84 7.264 4.032C7.184 4.24 7.088 4.432 6.992 4.64C7.088 4.848 7.184 5.04 7.248 5.248C7.328 5.44 7.392 5.632 7.456 5.824C7.552 5.808 7.632 5.776 7.712 5.744C7.792 5.728 7.872 5.696 7.952 5.664C8.336 5.52 8.624 5.36 8.832 5.184C9.04 5.008 9.152 4.816 9.152 4.64C9.152 4.416 8.992 4.208 8.704 4.016C8.4 3.792 7.984 3.616 7.456 3.456ZM6.704 0.799999C6.464 0.799999 6.208 0.879999 5.936 1.056C5.664 1.232 5.392 1.456 5.104 1.728C5.248 1.888 5.376 2.032 5.504 2.208C5.648 2.368 5.776 2.544 5.904 2.736C6.128 2.752 6.336 2.784 6.56 2.816C6.768 2.848 6.96 2.88 7.168 2.928C7.184 2.832 7.2 2.752 7.216 2.672C7.232 2.576 7.248 2.496 7.264 2.416C7.344 2 7.344 1.664 7.296 1.392C7.248 1.12 7.136 0.943999 6.976 0.863999C6.928 0.832 6.896 0.816 6.848 0.799999C6.8 0.799999 6.752 0.799999 6.704 0.799999ZM5.328 2.688C5.232 2.592 5.136 2.48 5.056 2.368C4.96 2.272 4.88 2.16 4.784 2.064C4.704 2.16 4.624 2.256 4.528 2.352C4.432 2.464 4.352 2.576 4.256 2.688C4.352 2.688 4.432 2.688 4.528 2.688C4.608 2.688 4.688 2.688 4.784 2.688C4.88 2.688 4.96 2.688 5.056 2.688C5.136 2.688 5.232 2.688 5.328 2.688ZM2.608 0.863999C2.448 0.96 2.336 1.136 2.288 1.408C2.24 1.68 2.24 2.016 2.32 2.416L2.368 2.672C2.384 2.752 2.4 2.848 2.416 2.928C2.624 2.88 2.832 2.848 3.04 2.8C3.248 2.768 3.472 2.752 3.696 2.736C3.808 2.544 3.936 2.368 4.08 2.208C4.208 2.032 4.352 1.888 4.48 1.728C4.208 1.456 3.92 1.216 3.648 1.056C3.36 0.879999 3.104 0.799999 2.88 0.799999C2.832 0.799999 2.768 0.799999 2.736 0.799999C2.688 0.816 2.656 0.832 2.608 0.863999ZM2.128 5.824C2.176 5.648 2.256 5.456 2.32 5.248C2.4 5.04 2.496 4.832 2.592 4.64C2.496 4.432 2.4 4.24 2.336 4.032C2.256 3.84 2.192 3.648 2.128 3.456C2.032 3.488 1.952 3.504 1.872 3.536C1.792 3.568 1.712 3.584 1.632 3.616C1.248 3.76 0.96 3.92 0.736 4.096C0.528 4.288 0.432 4.464 0.432 4.64C0.432 4.848 0.576 5.056 0.88 5.28C1.184 5.504 1.6 5.68 2.128 5.824ZM2.32 6.864C2.256 7.264 2.24 7.6 2.288 7.888C2.336 8.16 2.448 8.336 2.608 8.432C2.656 8.464 2.704 8.464 2.736 8.48C2.784 8.48 2.832 8.496 2.88 8.496C3.12 8.496 3.376 8.4 3.648 8.24C3.92 8.064 4.208 7.84 4.48 7.552C4.352 7.408 4.208 7.248 4.08 7.088C3.952 6.912 3.824 6.752 3.696 6.56C3.456 6.544 3.248 6.512 3.024 6.48C2.816 6.448 2.624 6.4 2.416 6.352C2.4 6.448 2.384 6.544 2.368 6.624C2.352 6.704 2.336 6.784 2.32 6.864Z" fill="white"/>
</svg>
