<?xml version="1.0" encoding="utf-8"?>

<!DOCTYPE svg PUBLIC "-//W3C//DTD SVG 1.1//EN" "http://www.w3.org/Graphics/SVG/1.1/DTD/svg11.dtd">
<svg version="1.1" id="_x32_" xmlns="http://www.w3.org/2000/svg" xmlns:xlink="http://www.w3.org/1999/xlink" 
	 width="32px" height="32px" viewBox="0 0 512 512"  xml:space="preserve">
<style type="text/css">
<![CDATA[
	.st0{fill:#c9d1d9;}
]]>
</style>
<g>
	<path class="st0" d="M405.878,357.099c-3.641-41.297-29.703-99.953-92.734-102.781c-92.922,0.25-106.391,72.141-97.656,103.984
		c7.328,26.75,26.781,48.078,54.422,45.656s48.469-26.844,45.656-54.438c-0.484-29.266,24.344-28.5,25.094,3.875
		c1.016,43.094-28.094,80.922-71.031,84.703c-42.938,3.75-77.531-28.547-84.719-71.031c-4.344-25.781,0.594-75.172,44.438-113.766
		c56.344-49.594,117.719,9.875,112.734-70.578c-5.031-81.188-25.438-82.906-78.063-114.531
		c-34.797-20.922-40.75-54.109-38.797-67.109c0.078-0.625,0.078-1.563-1.156-0.781c-32.594,20.469-32.859,58-13.813,87.25
		c9.141,14.016,28.031,21.234,29.969,43.422c2.641,30.094-14.672,39.281-28.938,51.703c-14.25,12.422-31.219,25.75-56.813,52.078
		c-40.875,42.063-51.625,95.219-48.359,140.266c3.609,41.281,23.625,77.203,53.031,101.875
		c29.453,24.688,68.313,38.141,109.594,34.516c41.297-3.625,77.203-23.641,101.906-53.063
		C395.315,428.911,409.487,398.38,405.878,357.099z"/>
</g>
</svg>
