<svg width="10" height="9" viewBox="0 0 10 9" fill="none" xmlns="http://www.w3.org/2000/svg">
<path d="M3.68 7.968C3.68 8.368 3.344 8.704 2.944 8.704C2.544 8.704 2.208 8.368 2.208 7.968C2.208 7.568 2.544 7.232 2.944 7.232C3.344 7.232 3.68 7.568 3.68 7.968ZM8.848 7.968C8.848 8.368 8.512 8.704 8.112 8.704C7.712 8.704 7.376 8.368 7.376 7.968C7.376 7.568 7.712 7.232 8.112 7.232C8.512 7.232 8.848 7.568 8.848 7.968ZM9.6 1.696V4.656C9.6 4.832 9.44 4.992 9.264 5.008L3.232 5.712C3.264 5.856 3.312 5.984 3.312 6.128C3.312 6.256 3.232 6.384 3.168 6.496H8.48C8.688 6.496 8.848 6.656 8.848 6.864C8.848 7.072 8.688 7.232 8.48 7.232H2.576C2.368 7.232 2.208 7.072 2.208 6.864C2.208 6.688 2.464 6.24 2.56 6.064L1.536 1.328H0.368C0.16 1.328 0 1.168 0 0.96C0 0.752 0.16 0.592 0.368 0.592H1.84C2.224 0.592 2.24 1.04 2.304 1.328H9.216C9.424 1.328 9.6 1.488 9.6 1.696Z" fill="white"/>
</svg>
