<svg width="10" height="7" viewBox="0 0 10 7" fill="none" xmlns="http://www.w3.org/2000/svg">
<path d="M4.592 1.544H2.912V6.584H1.68V1.544H0V0.648H4.544V1.544H4.592ZM8.4 5.064C8.4 4.808 8.304 4.664 8.144 4.504C8 4.36 7.712 4.264 7.312 4.12C6.624 3.912 6.08 3.672 5.68 3.384C5.328 3.08 5.136 2.728 5.136 2.232C5.136 1.736 5.328 1.352 5.776 1.048C6.176 0.743999 6.704 0.599999 7.36 0.599999C8.016 0.599999 8.544 0.792 8.944 1.144C9.344 1.496 9.536 1.944 9.536 2.44H8.4C8.4 2.136 8.304 1.944 8.112 1.736C7.904 1.592 7.664 1.496 7.312 1.496C7.024 1.496 6.768 1.544 6.56 1.704C6.368 1.848 6.32 2.04 6.32 2.232C6.32 2.44 6.432 2.568 6.624 2.728C6.816 2.888 7.12 2.968 7.616 3.128C8.256 3.32 8.752 3.576 9.104 3.88C9.456 4.168 9.6 4.568 9.6 5.064C9.6 5.56 9.392 5.992 8.992 6.248C8.608 6.552 8.064 6.696 7.408 6.696C6.768 6.696 6.176 6.552 5.728 6.2C5.28 5.848 4.992 5.416 5.04 4.76H6.224C6.224 5.112 6.32 5.352 6.56 5.56C6.768 5.704 7.104 5.8 7.456 5.8C7.808 5.8 8.048 5.752 8.208 5.592C8.304 5.448 8.4 5.256 8.4 5.064Z" fill="white"/>
</svg>
